<?xml version="1.0" encoding="UTF-8"?>
<!DOCTYPE svg PUBLIC "-//W3C//DTD SVG 1.1//EN" "http://www.w3.org/Graphics/SVG/1.1/DTD/svg11.dtd">
<!-- Creator: CorelDRAW X7 -->
<svg xmlns="http://www.w3.org/2000/svg" xml:space="preserve" width="215.9mm" height="279.4mm" version="1.1" style="shape-rendering:geometricPrecision; text-rendering:geometricPrecision; image-rendering:optimizeQuality; fill-rule:evenodd; clip-rule:evenodd"
viewBox="0 0 21590 27940"
 xmlns:xlink="http://www.w3.org/1999/xlink">
 <defs>
  <style type="text/css">
   <![CDATA[
    .str7 {stroke:#A9ABAE;stroke-width:17.63}
    .str2 {stroke:#FEFEFE;stroke-width:7.62}
    .str4 {stroke:#E6E7E8;stroke-width:7.62}
    .str10 {stroke:#848688;stroke-width:7.62}
    .str6 {stroke:#606062;stroke-width:7.62}
    .str9 {stroke:#373435;stroke-width:7.62}
    .str8 {stroke:#373435;stroke-width:7.62}
    .str5 {stroke:#FFF212;stroke-width:7.62}
    .str3 {stroke:#C7C7C6;stroke-width:7.62}
    .str29 {stroke:#FEFEFE;stroke-width:70.55;stroke-linecap:round;stroke-linejoin:round}
    .str21 {stroke:#FEFEFE;stroke-width:17.63;stroke-linecap:round;stroke-linejoin:round}
    .str26 {stroke:#E6E7E8;stroke-width:17.63;stroke-linecap:round;stroke-linejoin:round}
    .str23 {stroke:#BDBFC1;stroke-width:17.63;stroke-linecap:round;stroke-linejoin:round}
    .str24 {stroke:#96989A;stroke-width:17.63;stroke-linecap:round;stroke-linejoin:round}
    .str22 {stroke:#848688;stroke-width:17.63;stroke-linecap:round;stroke-linejoin:round}
    .str20 {stroke:#373435;stroke-width:17.63;stroke-linecap:round;stroke-linejoin:round}
    .str28 {stroke:#373435;stroke-width:17.63;stroke-linecap:round;stroke-linejoin:round}
    .str27 {stroke:#0A0A0A;stroke-width:17.63;stroke-linecap:round;stroke-linejoin:round}
    .str0 {stroke:#FEFEFE;stroke-width:7.62;stroke-linecap:round;stroke-linejoin:round}
    .str25 {stroke:#E6E7E8;stroke-width:7.62;stroke-linecap:round;stroke-linejoin:round}
    .str15 {stroke:#D2D3D5;stroke-width:7.62;stroke-linecap:round;stroke-linejoin:round}
    .str18 {stroke:#BDBFC1;stroke-width:7.62;stroke-linecap:round;stroke-linejoin:round}
    .str14 {stroke:#A9ABAE;stroke-width:7.62;stroke-linecap:round;stroke-linejoin:round}
    .str13 {stroke:#848688;stroke-width:7.62;stroke-linecap:round;stroke-linejoin:round}
    .str11 {stroke:#727376;stroke-width:7.62;stroke-linecap:round;stroke-linejoin:round}
    .str12 {stroke:#606062;stroke-width:7.62;stroke-linecap:round;stroke-linejoin:round}
    .str17 {stroke:#4B4B4D;stroke-width:7.62;stroke-linecap:round;stroke-linejoin:round}
    .str1 {stroke:#373435;stroke-width:7.62;stroke-linecap:round;stroke-linejoin:round}
    .str19 {stroke:#373435;stroke-width:7.62;stroke-linecap:round;stroke-linejoin:round}
    .str16 {stroke:#C8C5E2;stroke-width:7.62;stroke-linecap:round;stroke-linejoin:round}
    .fil6 {fill:none}
    .fil3 {fill:#FEFEFE}
    .fil74 {fill:#E6E7E8}
    .fil62 {fill:#BDBFC1}
    .fil50 {fill:#A9ABAE}
    .fil83 {fill:#96989A}
    .fil0 {fill:#727376}
    .fil11 {fill:#4B4B4D}
    .fil5 {fill:#373435}
    .fil4 {fill:#373435}
    .fil80 {fill:#D1CDCD}
    .fil44 {fill:#969595}
    .fil42 {fill:#6B809B}
    .fil53 {fill:#538283}
    .fil54 {fill:#3D6566}
    .fil34 {fill:black}
    .fil1 {fill:#08969B}
    .fil84 {fill:#0A0A0A}
    .fil28 {fill:#0A0B06}
    .fil36 {fill:#110E09}
    .fil51 {fill:#181310}
    .fil8 {fill:#193635}
    .fil25 {fill:#1A3736}
    .fil40 {fill:#213030}
    .fil30 {fill:#226E6E}
    .fil49 {fill:#233030}
    .fil27 {fill:#27271F}
    .fil10 {fill:#2C2B26}
    .fil58 {fill:#2D7D7D}
    .fil26 {fill:#302B28}
    .fil31 {fill:#34A1A1}
    .fil17 {fill:#38A6A6}
    .fil56 {fill:#3BB9B9}
    .fil2 {fill:#3CBEBE}
    .fil59 {fill:#405E5E}
    .fil66 {fill:#E3E3E3}
    .fil15 {fill:#A9ABAE;fill-rule:nonzero}
    .fil55 {fill:#727376;fill-rule:nonzero}
    .fil35 {fill:#373435;fill-rule:nonzero}
    .fil33 {fill:#1F1E1C;fill-rule:nonzero}
    .fil7 {fill:url(#id11)}
    .fil45 {fill:url(#id12)}
    .fil47 {fill:url(#id13)}
    .fil37 {fill:url(#id14)}
    .fil48 {fill:url(#id15)}
    .fil32 {fill:url(#id16)}
    .fil13 {fill:url(#id17)}
    .fil38 {fill:url(#id18)}
    .fil23 {fill:url(#id19)}
    .fil9 {fill:url(#id20)}
    .fil61 {fill:url(#id21)}
    .fil41 {fill:url(#id22)}
    .fil65 {fill:url(#id23)}
    .fil24 {fill:url(#id24)}
    .fil79 {fill:url(#id25)}
    .fil12 {fill:url(#id26)}
    .fil14 {fill:url(#id27)}
    .fil71 {fill:url(#id28)}
    .fil76 {fill:url(#id29)}
    .fil18 {fill:url(#id30)}
    .fil70 {fill:url(#id31)}
    .fil85 {fill:url(#id32)}
    .fil67 {fill:url(#id33)}
    .fil20 {fill:url(#id34)}
    .fil52 {fill:url(#id35)}
    .fil16 {fill:url(#id36)}
    .fil46 {fill:url(#id37)}
    .fil29 {fill:url(#id38)}
    .fil68 {fill:url(#id39)}
    .fil72 {fill:url(#id40)}
    .fil39 {fill:url(#id41)}
    .fil57 {fill:url(#id42)}
    .fil82 {fill:url(#id43)}
    .fil19 {fill:url(#id44)}
    .fil21 {fill:url(#id45)}
    .fil64 {fill:url(#id46)}
    .fil63 {fill:url(#id47)}
    .fil60 {fill:url(#id48)}
    .fil69 {fill:url(#id49)}
    .fil75 {fill:url(#id50)}
    .fil78 {fill:url(#id51)}
    .fil22 {fill:url(#id52)}
    .fil77 {fill:url(#id53)}
    .fil43 {fill:url(#id54)}
    .fil81 {fill:url(#id55)}
    .fil73 {fill:url(#id56);fill-rule:nonzero}
   ]]>
  </style>
   <clipPath id="id0">
    <path d="M16572 14217l-4851 0 0 -4990 4851 0 0 4990z"/>
   </clipPath>
    <clipPath id="id1">
     <path d="M14082 11748l-1697 -45 -664 -17 0 679 2225 -66 136 19 0 -570z"/>
    </clipPath>
     <clipPath id="id2">
      <path d="M14082 11748l-1697 -45 -664 -17 0 679 2225 -66 136 19 0 -570z"/>
     </clipPath>
     <clipPath id="id3">
      <path d="M14082 11748l-1697 -45 -664 -17 0 679 2225 -66 136 19 0 -570z"/>
     </clipPath>
    <clipPath id="id4">
     <path d="M16572 14217l-4851 0 0 -4990 4851 0 0 4990z"/>
    </clipPath>
     <mask id="id5">
  <linearGradient id="id6" gradientUnits="userSpaceOnUse" x1="13897.4" y1="10132.5" x2="13808.3" y2="10132.5">
   <stop offset="0" style="stop-opacity:1; stop-color:white"/>
   <stop offset="1" style="stop-opacity:0; stop-color:white"/>
  </linearGradient>
      <rect style="fill:url(#id6)" x="13804" y="10072" width="96.71" height="120.72"/>
     </mask>
     <mask id="id7">
  <linearGradient id="id8" gradientUnits="userSpaceOnUse" x1="14778.2" y1="10304.9" x2="14689.1" y2="10304.9">
   <stop offset="0" style="stop-opacity:1; stop-color:white"/>
   <stop offset="1" style="stop-opacity:0; stop-color:white"/>
  </linearGradient>
      <rect style="fill:url(#id8)" x="14685" y="10245" width="96.73" height="120.69"/>
     </mask>
     <mask id="id9">
  <linearGradient id="id10" gradientUnits="userSpaceOnUse" x1="15468.1" y1="10464.1" x2="15402.2" y2="10464.1">
   <stop offset="0" style="stop-opacity:1; stop-color:white"/>
   <stop offset="1" style="stop-opacity:0; stop-color:white"/>
  </linearGradient>
      <rect style="fill:url(#id10)" x="15398" y="10418" width="73.52" height="91.26"/>
     </mask>
  <linearGradient id="id11" gradientUnits="userSpaceOnUse" x1="11324.7" y1="12194.8" x2="11062.8" y2="12194.8">
   <stop offset="0" style="stop-opacity:1; stop-color:#38A6A6"/>
   <stop offset="0.321569" style="stop-opacity:1; stop-color:#286C6B"/>
   <stop offset="1" style="stop-opacity:1; stop-color:#183130"/>
  </linearGradient>
  <linearGradient id="id12" gradientUnits="userSpaceOnUse" x1="14862.9" y1="10270.4" x2="14604.4" y2="10270.4">
   <stop offset="0" style="stop-opacity:1; stop-color:#2A2B2B"/>
   <stop offset="1" style="stop-opacity:1; stop-color:#FEFEFE"/>
  </linearGradient>
  <linearGradient id="id13" gradientUnits="userSpaceOnUse" xlink:href="#id12" x1="15530.8" y1="10438.6" x2="15339.5" y2="10438.6">
  </linearGradient>
  <linearGradient id="id14" gradientUnits="userSpaceOnUse" xlink:href="#id12" x1="13982.1" y1="10098" x2="13723.5" y2="10098">
  </linearGradient>
  <linearGradient id="id15" gradientUnits="userSpaceOnUse" x1="15440.2" y1="10464.5" x2="15430.1" y2="10463.7">
   <stop offset="0" style="stop-opacity:1; stop-color:#848688"/>
   <stop offset="1" style="stop-opacity:1; stop-color:#FEFEFE"/>
  </linearGradient>
  <linearGradient id="id16" gradientUnits="userSpaceOnUse" x1="10444.8" y1="12171.1" x2="10618" y2="12171.1">
   <stop offset="0" style="stop-opacity:1; stop-color:#1A5252"/>
   <stop offset="1" style="stop-opacity:1; stop-color:#38A6A6"/>
  </linearGradient>
  <linearGradient id="id17" gradientUnits="userSpaceOnUse" x1="16022.7" y1="12972.5" x2="15349.8" y2="12958.6">
   <stop offset="0" style="stop-opacity:1; stop-color:#3C9697"/>
   <stop offset="0.431373" style="stop-opacity:1; stop-color:#256B6B"/>
   <stop offset="0.741176" style="stop-opacity:0.937255; stop-color:#206161"/>
   <stop offset="1" style="stop-opacity:0.776471; stop-color:#2C8484"/>
  </linearGradient>
  <linearGradient id="id18" gradientUnits="userSpaceOnUse" xlink:href="#id15" x1="13859.6" y1="10133" x2="13846" y2="10132">
  </linearGradient>
  <linearGradient id="id19" gradientUnits="userSpaceOnUse" x1="12561" y1="11562.6" x2="12561" y2="10698">
   <stop offset="0" style="stop-opacity:1; stop-color:#242424"/>
   <stop offset="1" style="stop-opacity:1; stop-color:#80807F"/>
  </linearGradient>
  <linearGradient id="id20" gradientUnits="userSpaceOnUse" x1="14951.7" y1="11023.5" x2="12135.7" y2="8464.23">
   <stop offset="0" style="stop-opacity:0.839216; stop-color:#E6E7E8"/>
   <stop offset="1" style="stop-opacity:1; stop-color:#ABABAB"/>
  </linearGradient>
  <linearGradient id="id21" gradientUnits="userSpaceOnUse" x1="14770.6" y1="11178.9" x2="14675.9" y2="11178.9">
   <stop offset="0" style="stop-opacity:1; stop-color:#898A8A"/>
   <stop offset="1" style="stop-opacity:1; stop-color:#D4D4D3"/>
  </linearGradient>
  <linearGradient id="id22" gradientUnits="userSpaceOnUse" x1="12914.9" y1="10863.9" x2="13637.6" y2="11049.5">
   <stop offset="0" style="stop-opacity:1; stop-color:#363634"/>
   <stop offset="1" style="stop-opacity:1; stop-color:#7A7A7A"/>
  </linearGradient>
  <linearGradient id="id23" gradientUnits="userSpaceOnUse" x1="10205.8" y1="12796.6" x2="11206.5" y2="12845.6">
   <stop offset="0" style="stop-opacity:1; stop-color:#999999"/>
   <stop offset="0.2" style="stop-opacity:1; stop-color:#E6E6E6"/>
   <stop offset="1" style="stop-opacity:1; stop-color:#E2E6E9"/>
  </linearGradient>
  <linearGradient id="id24" gradientUnits="userSpaceOnUse" x1="15654.6" y1="11666" x2="15404.5" y2="11666">
   <stop offset="0" style="stop-opacity:1; stop-color:#0E2B2B"/>
   <stop offset="0.709804" style="stop-opacity:1; stop-color:#226060"/>
   <stop offset="1" style="stop-opacity:1; stop-color:#379696"/>
  </linearGradient>
  <linearGradient id="id25" gradientUnits="userSpaceOnUse" x1="9726.65" y1="11614.4" x2="9726.65" y2="12360">
   <stop offset="0" style="stop-opacity:1; stop-color:#A1A1A1"/>
   <stop offset="0.811765" style="stop-opacity:1; stop-color:#B6B6B6"/>
   <stop offset="1" style="stop-opacity:1; stop-color:#CCCCCC"/>
  </linearGradient>
  <linearGradient id="id26" gradientUnits="userSpaceOnUse" x1="15334.1" y1="12510.3" x2="14505.4" y2="13109">
   <stop offset="0" style="stop-opacity:1; stop-color:#4B4B4D"/>
   <stop offset="0.439216" style="stop-opacity:1; stop-color:#4B4B4D"/>
   <stop offset="1" style="stop-opacity:1; stop-color:#2B8787"/>
  </linearGradient>
  <linearGradient id="id27" gradientUnits="userSpaceOnUse" x1="12721.7" y1="13353.7" x2="12721.7" y2="12431.8">
   <stop offset="0" style="stop-opacity:1; stop-color:#2C6A6A"/>
   <stop offset="0.741176" style="stop-opacity:1; stop-color:#359191"/>
   <stop offset="1" style="stop-opacity:1; stop-color:#3FB8B8"/>
  </linearGradient>
  <linearGradient id="id28" gradientUnits="userSpaceOnUse" x1="8333.12" y1="12260.1" x2="8278.64" y2="11908.7">
   <stop offset="0" style="stop-opacity:1; stop-color:#B1B1B1"/>
   <stop offset="1" style="stop-opacity:1; stop-color:#FEFEFE"/>
  </linearGradient>
  <linearGradient id="id29" gradientUnits="userSpaceOnUse" x1="10927.3" y1="12294" x2="10990.9" y2="12225.7">
   <stop offset="0" style="stop-opacity:1; stop-color:#282829"/>
   <stop offset="0.211765" style="stop-opacity:1; stop-color:#818182"/>
   <stop offset="0.509804" style="stop-opacity:1; stop-color:#FFFCFC"/>
   <stop offset="1" style="stop-opacity:1; stop-color:#DBDBDB"/>
  </linearGradient>
  <linearGradient id="id30" gradientUnits="userSpaceOnUse" x1="11008.5" y1="10949.8" x2="11013.7" y2="10843.6">
   <stop offset="0" style="stop-opacity:1; stop-color:#0F2E2E"/>
   <stop offset="0.74902" style="stop-opacity:1; stop-color:#1E5757"/>
   <stop offset="1" style="stop-opacity:1; stop-color:#2D8080"/>
  </linearGradient>
  <linearGradient id="id31" gradientUnits="userSpaceOnUse" x1="8712.75" y1="12231.1" x2="9112.78" y2="12026.7">
   <stop offset="0" style="stop-opacity:1; stop-color:#E3E3E3"/>
   <stop offset="0.329412" style="stop-opacity:1; stop-color:#D1CDCD"/>
   <stop offset="1" style="stop-opacity:1; stop-color:#FEFEFE"/>
  </linearGradient>
  <linearGradient id="id32" gradientUnits="userSpaceOnUse" x1="10071.2" y1="10435.8" x2="9347.78" y2="11084.3">
   <stop offset="0" style="stop-opacity:1; stop-color:#CFD0D1"/>
   <stop offset="0.14902" style="stop-opacity:1; stop-color:#BFBFBF"/>
   <stop offset="0.270588" style="stop-opacity:1; stop-color:#ECECED"/>
   <stop offset="0.4" style="stop-opacity:1; stop-color:#C9C9C9"/>
   <stop offset="0.509804" style="stop-opacity:1; stop-color:#F2F2F2"/>
   <stop offset="0.670588" style="stop-opacity:1; stop-color:#C9C9C9"/>
   <stop offset="0.788235" style="stop-opacity:1; stop-color:#E0E0E0"/>
   <stop offset="1" style="stop-opacity:1; stop-color:#FEFEFE"/>
  </linearGradient>
  <linearGradient id="id33" gradientUnits="userSpaceOnUse" x1="7719.33" y1="13213" x2="8206.61" y2="12450.5">
   <stop offset="0" style="stop-opacity:1; stop-color:#AAA9AF"/>
   <stop offset="0.411765" style="stop-opacity:1; stop-color:#D4D4D7"/>
   <stop offset="0.341176" style="stop-opacity:1; stop-color:#E8E8E8"/>
   <stop offset="0.639216" style="stop-opacity:1; stop-color:#D9D9D9"/>
   <stop offset="1" style="stop-opacity:1; stop-color:white"/>
  </linearGradient>
  <linearGradient id="id34" gradientUnits="userSpaceOnUse" x1="12702.9" y1="11660" x2="12973.9" y2="11684">
   <stop offset="0" style="stop-opacity:1; stop-color:#7A7A7A"/>
   <stop offset="1" style="stop-opacity:1; stop-color:#302F2B"/>
  </linearGradient>
  <linearGradient id="id35" gradientUnits="userSpaceOnUse" x1="13247.6" y1="13633" x2="13763.8" y2="12854.3">
   <stop offset="0" style="stop-opacity:1; stop-color:#2C6969"/>
   <stop offset="0.380392" style="stop-opacity:1; stop-color:#349393"/>
   <stop offset="1" style="stop-opacity:1; stop-color:#3CBEBE"/>
  </linearGradient>
  <linearGradient id="id36" gradientUnits="userSpaceOnUse" x1="12951.1" y1="10915.6" x2="12951.1" y2="9173.1">
   <stop offset="0" style="stop-opacity:1; stop-color:#60615C"/>
   <stop offset="0.388235" style="stop-opacity:1; stop-color:#A3A3A1"/>
   <stop offset="1" style="stop-opacity:1; stop-color:#E6E6E6"/>
  </linearGradient>
  <linearGradient id="id37" gradientUnits="userSpaceOnUse" xlink:href="#id15" x1="14740.4" y1="10305.4" x2="14726.8" y2="10304.4">
  </linearGradient>
  <linearGradient id="id38" gradientUnits="userSpaceOnUse" x1="12688" y1="10729.8" x2="12759.9" y2="11518.5">
   <stop offset="0" style="stop-opacity:1; stop-color:#4D4C4A"/>
   <stop offset="0.611765" style="stop-opacity:1; stop-color:#8A8A8A"/>
   <stop offset="0.701961" style="stop-opacity:1; stop-color:#726D69"/>
   <stop offset="0.85098" style="stop-opacity:1; stop-color:#C4C4C4"/>
   <stop offset="1" style="stop-opacity:1; stop-color:#949293"/>
  </linearGradient>
  <linearGradient id="id39" gradientUnits="userSpaceOnUse" x1="7587.49" y1="12506.3" x2="8442.66" y2="12202">
   <stop offset="0" style="stop-opacity:1; stop-color:#C6C6C6"/>
   <stop offset="1" style="stop-opacity:1; stop-color:#E5E5E5"/>
  </linearGradient>
  <linearGradient id="id40" gradientUnits="userSpaceOnUse" x1="8163.71" y1="11931.9" x2="8293.08" y2="12238.7">
   <stop offset="0" style="stop-opacity:1; stop-color:#B8B8B8"/>
   <stop offset="1" style="stop-opacity:1; stop-color:lightgrey"/>
  </linearGradient>
  <linearGradient id="id41" gradientUnits="userSpaceOnUse" xlink:href="#id21" x1="13907.2" y1="11095.9" x2="13801.2" y2="11095.9">
  </linearGradient>
  <linearGradient id="id42" gradientUnits="userSpaceOnUse" x1="16329.9" y1="12408.2" x2="13811.4" y2="12446.9">
   <stop offset="0" style="stop-opacity:1; stop-color:#2B8787"/>
   <stop offset="0.0705882" style="stop-opacity:1; stop-color:#40C2C2"/>
   <stop offset="0.321569" style="stop-opacity:1; stop-color:#2B8282"/>
   <stop offset="1" style="stop-opacity:1; stop-color:#3AB4B4"/>
  </linearGradient>
  <linearGradient id="id43" gradientUnits="userSpaceOnUse" x1="9720.66" y1="11613.8" x2="9720.66" y2="11461.4">
   <stop offset="0" style="stop-opacity:1; stop-color:#636364"/>
   <stop offset="0.329412" style="stop-opacity:1; stop-color:#737373"/>
   <stop offset="1" style="stop-opacity:1; stop-color:#FEFEFE"/>
  </linearGradient>
  <linearGradient id="id44" gradientUnits="userSpaceOnUse" x1="12488.3" y1="11733.2" x2="12488.3" y2="11597.4">
   <stop offset="0" style="stop-opacity:1; stop-color:#1F1E1C"/>
   <stop offset="1" style="stop-opacity:1; stop-color:#FEFEFE"/>
  </linearGradient>
  <linearGradient id="id45" gradientUnits="userSpaceOnUse" x1="12455.4" y1="11761.2" x2="12455.4" y2="11795.6">
   <stop offset="0" style="stop-opacity:1; stop-color:#4D4C4A"/>
   <stop offset="1" style="stop-opacity:1; stop-color:#908F8B"/>
  </linearGradient>
  <linearGradient id="id46" gradientUnits="userSpaceOnUse" x1="10644.8" y1="12601.8" x2="10644.8" y2="12339">
   <stop offset="0" style="stop-opacity:1; stop-color:#696666"/>
   <stop offset="0.188235" style="stop-opacity:1; stop-color:#9E9E9E"/>
   <stop offset="1" style="stop-opacity:1; stop-color:#FEFEFE"/>
  </linearGradient>
  <linearGradient id="id47" gradientUnits="userSpaceOnUse" x1="9897.69" y1="12533.3" x2="9897.69" y2="10969">
   <stop offset="0" style="stop-opacity:1; stop-color:#C4C4C4"/>
   <stop offset="0.270588" style="stop-opacity:1; stop-color:#E1E1E1"/>
   <stop offset="1" style="stop-opacity:1; stop-color:#FEFEFE"/>
  </linearGradient>
  <linearGradient id="id48" gradientUnits="userSpaceOnUse" xlink:href="#id21" x1="15476.4" y1="11259.1" x2="15388.9" y2="11259.1">
  </linearGradient>
  <linearGradient id="id49" gradientUnits="userSpaceOnUse" x1="8900.26" y1="12841.5" x2="8836.96" y2="12200.7">
   <stop offset="0" style="stop-opacity:1; stop-color:#A1A1A1"/>
   <stop offset="0.431373" style="stop-opacity:1; stop-color:#BEBEBE"/>
   <stop offset="1" style="stop-opacity:1; stop-color:#DBDBDB"/>
  </linearGradient>
  <linearGradient id="id50" gradientUnits="userSpaceOnUse" x1="10818.4" y1="12251.7" x2="10092.4" y2="12251.7">
   <stop offset="0" style="stop-opacity:1; stop-color:#E6E6E6"/>
   <stop offset="1" style="stop-opacity:1; stop-color:#E1E1E1"/>
  </linearGradient>
  <linearGradient id="id51" gradientUnits="userSpaceOnUse" x1="10993.3" y1="11944.9" x2="11210.6" y2="11947">
   <stop offset="0" style="stop-opacity:1; stop-color:#EDEDEE"/>
   <stop offset="1" style="stop-opacity:1; stop-color:white"/>
  </linearGradient>
  <linearGradient id="id52" gradientUnits="userSpaceOnUse" xlink:href="#id45" x1="12839.8" y1="11761.7" x2="12839.8" y2="11797.9">
  </linearGradient>
  <linearGradient id="id53" gradientUnits="userSpaceOnUse" x1="11045.1" y1="11928.8" x2="11125.8" y2="11933.1">
   <stop offset="0" style="stop-opacity:1; stop-color:#BDB9B9"/>
   <stop offset="1" style="stop-opacity:1; stop-color:#FEFEFE"/>
  </linearGradient>
  <linearGradient id="id54" gradientUnits="userSpaceOnUse" x1="11515.6" y1="12025.4" x2="10541.8" y2="11906.7">
   <stop offset="0" style="stop-opacity:1; stop-color:#6B6B6B"/>
   <stop offset="1" style="stop-opacity:1; stop-color:#C8C7C7"/>
  </linearGradient>
  <radialGradient id="id55" gradientUnits="userSpaceOnUse" gradientTransform="matrix(0.396888 0.0212439 -0.110686 0.981968 7181 6)" cx="9741.24" cy="11802.4" r="255.88" fx="9741.24" fy="11802.4">
   <stop offset="0" style="stop-opacity:0.588235; stop-color:#FEFEFE"/>
   <stop offset="0.588235" style="stop-opacity:0.588235; stop-color:#D2D2D2"/>
   <stop offset="1" style="stop-opacity:1; stop-color:#A7A7A7"/>
  </radialGradient>
  <linearGradient id="id56" gradientUnits="userSpaceOnUse" x1="7976.18" y1="11899.9" x2="8334.13" y2="11680.5">
   <stop offset="0" style="stop-opacity:1; stop-color:#373435"/>
   <stop offset="0.168627" style="stop-opacity:1; stop-color:#FFF5FA"/>
   <stop offset="0.458824" style="stop-opacity:1; stop-color:#707070"/>
   <stop offset="0.819608" style="stop-opacity:1; stop-color:#525252"/>
   <stop offset="1" style="stop-opacity:1; stop-color:#FEFEFE"/>
  </linearGradient>
 </defs>
 <g id="Capa_x0020_1">
  <metadata id="CorelCorpID_0Corel-Layer"/>
  <polygon class="fil0" points="3971,10168 10937,8055 10937,8683 7170,9825 7170,13955 5024,13955 5024,10477 3971,10796 "/>
  <polygon class="fil0" points="16565,9689 14247,8986 14247,8275 13741,8275 13741,8832 11181,8055 11181,8683 16565,10316 "/>
  <path class="fil1" d="M6314 16453l-431 -1710 0 1852c0,103 -23,180 -69,231 -45,51 -106,77 -181,77 -73,0 -133,-26 -179,-76 -46,-51 -69,-128 -69,-232l0 -2123c0,-117 30,-196 91,-237 61,-41 144,-61 247,-61l168 0c102,0 175,9 220,27 46,18 80,51 102,99 22,47 47,125 75,232l390 1471 390 -1471c28,-107 53,-185 75,-232 22,-48 56,-81 101,-99 46,-18 119,-27 221,-27l168 0c104,0 186,20 247,61 61,41 91,120 91,237l0 2123c0,103 -23,180 -68,231 -46,51 -107,77 -183,77 -72,0 -132,-26 -178,-77 -46,-51 -69,-128 -69,-231l0 -1852 -431 1710c-28,111 -50,192 -68,244 -18,52 -50,99 -98,142 -48,43 -114,64 -198,64 -64,0 -117,-14 -161,-41 -44,-28 -78,-63 -103,-105 -24,-43 -43,-90 -57,-142 -15,-52 -29,-106 -43,-162z"/>
  <path class="fil2" d="M6156 16453l-430 -1710 0 1852c0,103 -23,180 -69,231 -45,51 -106,77 -181,77 -73,0 -133,-26 -179,-76 -47,-51 -70,-128 -70,-232l0 -2123c0,-117 31,-196 91,-237 62,-41 144,-61 247,-61l169 0c101,0 174,9 220,27 46,18 80,51 102,99 22,47 47,125 75,232l390 1471 390 -1471c28,-107 53,-185 75,-232 21,-48 55,-81 101,-99 45,-18 119,-27 220,-27l168 0c104,0 187,20 248,61 61,41 91,120 91,237l0 2123c0,103 -23,180 -69,231 -45,51 -106,77 -183,77 -72,0 -131,-26 -177,-77 -46,-51 -69,-128 -69,-231l0 -1852 -431 1710c-28,111 -51,192 -69,244 -17,52 -50,99 -97,142 -48,43 -114,64 -198,64 -64,0 -118,-14 -162,-41 -43,-28 -78,-63 -102,-105 -24,-43 -44,-90 -57,-142 -15,-52 -29,-106 -44,-162z"/>
  <path class="fil1" d="M9608 15040l-983 0 0 529 905 0c67,0 117,16 149,45 34,30 50,69 50,118 0,49 -16,89 -49,119 -32,31 -82,47 -150,47l-905 0 0 614 1017 0c69,0 120,16 155,47 35,32 53,75 53,127 0,51 -18,93 -53,124 -35,32 -86,48 -155,48l-1186 0c-95,0 -163,-21 -205,-63 -42,-42 -63,-111 -63,-204l0 -1621c0,-63 10,-114 28,-154 19,-39 48,-68 88,-86 39,-18 90,-27 152,-27l1152 0c70,0 122,15 155,46 34,31 51,71 51,121 0,51 -17,92 -51,124 -33,30 -85,46 -155,46z"/>
  <path class="fil3" d="M9283 15154l-922 0 0 497 849 0c62,0 109,14 139,42 31,27 46,65 46,110 0,46 -15,83 -45,112 -30,29 -77,43 -140,43l-849 0 0 576 953 0c65,0 113,15 145,44 33,30 50,70 50,119 0,48 -17,87 -50,116 -32,30 -80,45 -145,45l-1111 0c-89,0 -153,-20 -192,-59 -39,-40 -59,-104 -59,-192l0 -1518c0,-59 9,-107 27,-144 17,-37 44,-64 81,-81 38,-17 85,-25 143,-25l1080 0c65,0 113,14 145,43 31,29 47,67 47,114 0,47 -16,86 -47,115 -32,29 -80,43 -145,43z"/>
  <path class="fil2" d="M9361 15154l-921 0 0 497 848 0c63,0 109,14 140,42 31,27 46,65 46,110 0,46 -15,83 -45,112 -31,29 -77,43 -141,43l-848 0 0 576 953 0c64,0 113,15 145,44 33,30 49,70 49,119 0,48 -16,87 -49,116 -32,30 -81,45 -145,45l-1111 0c-89,0 -153,-20 -192,-59 -39,-40 -59,-104 -59,-192l0 -1518c0,-59 9,-107 26,-144 18,-37 45,-64 82,-81 37,-17 85,-25 143,-25l1079 0c66,0 114,14 146,43 31,29 47,67 47,114 0,47 -16,86 -47,115 -32,29 -80,43 -146,43z"/>
  <path class="fil1" d="M10133 14931l0 1569 886 0c70,0 124,17 162,51 38,34 56,78 56,129 0,53 -18,96 -55,129 -38,32 -92,49 -163,49l-1055 0c-94,0 -163,-21 -204,-63 -42,-42 -63,-111 -63,-204l0 -1660c0,-88 20,-154 60,-198 39,-45 91,-67 156,-67 65,0 119,22 159,66 41,43 61,110 61,199z"/>
  <path class="fil3" d="M9908 15052l0 1470 829 0c66,0 116,16 152,48 35,33 53,73 53,122 0,49 -18,89 -52,120 -35,30 -86,46 -153,46l-988 0c-89,0 -153,-20 -192,-59 -39,-40 -58,-104 -58,-192l0 -1555c0,-82 19,-144 56,-185 37,-42 86,-62 146,-62 61,0 111,20 149,61 38,41 58,103 58,186z"/>
  <path class="fil2" d="M9986 15052l0 1470 830 0c65,0 116,16 151,48 36,33 53,73 53,122 0,49 -17,89 -52,120 -34,30 -86,46 -152,46l-988 0c-89,0 -153,-20 -192,-59 -39,-40 -59,-104 -59,-192l0 -1555c0,-82 19,-144 56,-185 37,-42 86,-62 147,-62 61,0 111,20 149,61 38,41 57,103 57,186z"/>
  <path class="fil1" d="M12295 16614l-103 -271 -876 0 -103 276c-40,108 -74,181 -103,218 -28,38 -75,57 -139,57 -55,0 -104,-20 -146,-60 -42,-40 -63,-86 -63,-137 0,-29 5,-60 15,-91 10,-32 26,-75 48,-131l551 -1399c16,-40 35,-88 57,-144 22,-57 45,-104 71,-141 25,-37 57,-67 98,-90 40,-23 91,-35 150,-35 62,0 112,12 153,35 41,23 73,53 98,89 25,36 46,75 63,117 18,41 40,97 66,166l563 1391c44,105 66,182 66,230 0,50 -21,96 -62,138 -42,41 -93,62 -151,62 -35,0 -64,-6 -89,-19 -24,-12 -44,-28 -61,-49 -17,-21 -35,-54 -54,-97 -19,-44 -35,-82 -49,-115zm-864 -599l643 0 -324 -888 -319 888z"/>
  <path class="fil3" d="M12076 16629l-97 -253 -820 0 -97 258c-37,101 -69,169 -96,205 -26,35 -70,53 -131,53 -51,0 -97,-19 -136,-57 -40,-37 -59,-80 -59,-127 0,-28 4,-57 13,-86 10,-30 25,-70 46,-123l516 -1310c15,-38 33,-83 53,-136 21,-53 43,-96 66,-131 24,-35 55,-63 93,-85 38,-21 85,-32 141,-32 57,0 104,11 143,32 38,22 68,49 92,83 23,34 43,71 59,110 16,39 37,91 61,156l527 1302c42,100 62,172 62,217 0,46 -19,89 -58,128 -39,40 -86,59 -141,59 -32,0 -60,-6 -83,-18 -23,-11 -42,-26 -58,-46 -15,-20 -32,-50 -50,-91 -18,-41 -33,-77 -46,-108zm-810 -561l603 0 -304 -832 -299 832z"/>
  <path class="fil2" d="M12154 16629l-96 -253 -821 0 -96 258c-38,101 -70,169 -96,205 -27,35 -70,53 -131,53 -51,0 -97,-19 -136,-57 -40,-37 -60,-80 -60,-127 0,-28 5,-57 14,-86 9,-30 24,-70 46,-123l516 -1310c15,-38 32,-83 53,-136 21,-53 43,-96 66,-131 24,-35 54,-63 92,-85 38,-21 85,-32 141,-32 58,0 105,11 143,32 38,22 69,49 92,83 24,34 44,71 60,110 16,39 36,91 61,156l527 1302c41,100 62,172 62,217 0,46 -19,89 -58,128 -39,40 -87,59 -142,59 -32,0 -59,-6 -82,-18 -23,-11 -42,-26 -58,-46 -16,-20 -32,-50 -50,-91 -18,-41 -33,-77 -47,-108zm-809 -561l603 0 -304 -832 -299 832z"/>
  <path class="fil3" d="M14036 16252c0,122 -32,232 -95,329 -62,97 -154,174 -276,229 -121,55 -265,82 -431,82 -199,0 -363,-38 -493,-113 -91,-54 -166,-126 -223,-216 -57,-91 -86,-178 -86,-264 0,-49 17,-92 52,-127 34,-36 78,-53 131,-53 43,0 79,14 109,41 30,28 55,69 76,123 26,64 54,118 84,161 30,43 72,79 126,107 54,28 125,42 214,42 120,0 219,-28 295,-85 75,-56 113,-127 113,-211 0,-68 -20,-122 -61,-163 -41,-42 -94,-74 -158,-96 -65,-22 -152,-46 -260,-71 -145,-34 -267,-74 -364,-119 -98,-45 -175,-107 -232,-186 -58,-78 -87,-176 -87,-293 0,-111 31,-209 91,-296 61,-86 149,-152 263,-199 115,-46 250,-69 405,-69 124,0 231,15 322,46 90,31 165,72 225,122 59,51 103,105 131,161 27,56 41,111 41,164 0,48 -17,92 -52,131 -34,39 -77,59 -129,59 -47,0 -82,-12 -106,-35 -25,-24 -51,-62 -79,-115 -37,-76 -81,-136 -133,-179 -51,-43 -134,-64 -248,-64 -105,0 -191,23 -255,70 -65,46 -98,102 -98,167 0,41 11,75 33,105 22,29 53,54 92,76 38,21 77,37 117,49 39,12 104,30 195,53 114,26 217,56 309,88 93,32 171,71 236,117 65,46 115,104 151,174 36,70 55,156 55,258z"/>
  <path class="fil4" d="M14181 16252c0,122 -31,232 -94,329 -63,97 -155,174 -276,229 -121,55 -265,82 -431,82 -199,0 -364,-38 -493,-113 -92,-54 -166,-126 -223,-216 -58,-91 -87,-178 -87,-264 0,-49 18,-92 52,-127 35,-36 78,-53 131,-53 44,0 80,14 109,41 30,28 56,69 77,123 25,64 54,118 83,161 30,43 72,79 126,107 55,28 126,42 214,42 121,0 220,-28 295,-85 76,-56 114,-127 114,-211 0,-68 -20,-122 -61,-163 -41,-42 -94,-74 -159,-96 -64,-22 -151,-46 -259,-71 -145,-34 -267,-74 -364,-119 -98,-45 -176,-107 -233,-186 -57,-78 -86,-176 -86,-293 0,-111 30,-209 91,-296 60,-86 148,-152 263,-199 115,-46 250,-69 405,-69 123,0 231,15 321,46 90,31 166,72 225,122 60,51 103,105 131,161 27,56 41,111 41,164 0,48 -17,92 -51,131 -35,39 -78,59 -129,59 -47,0 -82,-12 -107,-35 -24,-24 -51,-62 -79,-115 -37,-76 -81,-136 -132,-179 -52,-43 -134,-64 -248,-64 -106,0 -191,23 -256,70 -65,46 -97,102 -97,167 0,41 11,75 33,105 22,29 53,54 91,76 39,21 78,37 117,49 40,12 105,30 196,53 113,26 217,56 309,88 92,32 171,71 235,117 65,46 116,104 152,174 36,70 54,156 54,258z"/>
  <path class="fil3" d="M15349 15177l-447 0 0 1466c0,84 -18,147 -56,188 -38,41 -87,61 -147,61 -60,0 -110,-21 -148,-62 -38,-42 -58,-104 -58,-187l0 -1466 -446 0c-70,0 -121,-16 -155,-46 -34,-31 -51,-72 -51,-123 0,-52 17,-93 53,-124 35,-30 86,-45 153,-45l1302 0c70,0 123,15 157,47 35,31 52,72 52,122 0,51 -18,92 -52,123 -35,30 -87,46 -157,46z"/>
  <path class="fil4" d="M15457 15177l-446 0 0 1466c0,84 -19,147 -57,188 -38,41 -87,61 -146,61 -61,0 -111,-21 -149,-62 -38,-42 -57,-104 -57,-187l0 -1466 -446 0c-70,0 -122,-16 -156,-46 -34,-31 -51,-72 -51,-123 0,-52 18,-93 53,-124 35,-30 87,-45 154,-45l1301 0c71,0 123,15 158,47 34,31 52,72 52,122 0,51 -18,92 -53,123 -35,30 -87,46 -157,46z"/>
  <path class="fil3" d="M15437 16643l0 -1591c0,-82 19,-144 56,-185 38,-42 87,-62 147,-62 61,0 110,20 149,61 38,41 57,103 57,186l0 1591c0,83 -19,145 -57,187 -39,41 -88,62 -149,62 -59,0 -108,-21 -146,-63 -38,-42 -57,-104 -57,-186z"/>
  <path class="fil4" d="M15597 16643l0 -1591c0,-82 19,-144 57,-185 37,-42 86,-62 146,-62 61,0 111,20 149,61 38,41 57,103 57,186l0 1591c0,83 -19,145 -57,187 -38,41 -88,62 -149,62 -59,0 -107,-21 -145,-63 -38,-42 -58,-104 -58,-186z"/>
  <circle class="fil4" cx="16371" cy="14876" r="214"/>
  <path class="fil3" d="M16283 14991l0 -230 98 0c24,0 42,2 53,6 12,4 21,12 27,22 7,11 10,23 10,37 0,17 -5,31 -15,43 -10,11 -25,18 -45,21 10,6 18,12 25,19 6,7 15,20 26,38l28 44 -56 0 -33 -50c-12,-18 -20,-29 -25,-34 -4,-4 -9,-7 -14,-9 -5,-2 -12,-3 -23,-3l-10 0 0 96 -46 0zm46 -132l35 0c22,0 36,-1 42,-3 5,-2 10,-5 13,-10 3,-5 4,-10 4,-17 0,-8 -2,-14 -6,-19 -4,-5 -10,-8 -17,-9 -4,-1 -15,-1 -34,-1l-37 0 0 59z"/>
  <path class="fil4" d="M5285 17878l0 -610 260 0c65,0 112,5 142,16 29,11 53,30 71,58 18,29 27,61 27,97 0,45 -14,83 -41,113 -27,30 -67,49 -120,57 27,15 48,32 66,51 17,18 40,51 70,99l74 119 -147 0 -89 -133c-31,-48 -53,-77 -65,-90 -12,-12 -24,-21 -37,-25 -13,-5 -34,-7 -62,-7l-25 0 0 255 -124 0zm124 -352l91 0c59,0 96,-3 110,-8 15,-5 27,-13 35,-26 8,-12 12,-27 12,-45 0,-21 -5,-38 -16,-50 -11,-13 -26,-21 -46,-24 -10,-2 -40,-2 -90,-2l-96 0 0 155zm492 352l0 -610 452 0 0 103 -329 0 0 135 305 0 0 103 -305 0 0 166 340 0 0 103 -463 0zm536 -198l120 -12c7,40 22,70 44,89 22,19 52,28 89,28 39,0 69,-8 89,-25 20,-17 30,-36 30,-59 0,-14 -4,-27 -12,-37 -9,-10 -23,-19 -44,-26 -15,-5 -47,-14 -99,-27 -65,-16 -112,-37 -138,-61 -37,-33 -56,-74 -56,-123 0,-31 9,-60 26,-87 18,-27 43,-48 76,-62 33,-14 73,-22 120,-22 76,0 134,17 172,51 39,34 59,79 61,136l-123 4c-6,-31 -17,-54 -34,-68 -17,-13 -43,-20 -78,-20 -35,0 -63,7 -83,22 -13,9 -19,22 -19,38 0,14 6,27 18,37 15,13 53,27 113,41 60,14 104,29 132,44 29,15 52,36 68,62 16,26 24,59 24,97 0,35 -10,68 -29,99 -19,30 -47,53 -82,68 -36,15 -80,22 -133,22 -77,0 -137,-18 -178,-53 -41,-36 -66,-88 -74,-156zm738 198l0 -507 -180 0 0 -103 484 0 0 103 -180 0 0 507 -124 0zm343 -302c0,-62 9,-114 28,-156 14,-32 33,-60 57,-84 24,-25 50,-43 79,-55 38,-16 82,-25 131,-25 90,0 162,28 216,84 54,56 81,134 81,234 0,98 -26,176 -80,231 -54,56 -125,84 -215,84 -91,0 -163,-28 -217,-83 -53,-56 -80,-132 -80,-230zm127 -4c0,70 16,122 48,158 32,35 73,53 122,53 49,0 89,-17 121,-53 32,-35 47,-88 47,-159 0,-70 -15,-123 -46,-157 -30,-35 -71,-52 -122,-52 -51,0 -92,18 -123,52 -31,35 -47,88 -47,158zm562 306l0 -610 259 0c65,0 113,5 143,16 29,11 53,30 71,58 17,29 26,61 26,97 0,45 -13,83 -40,113 -27,30 -67,49 -120,57 26,15 48,32 65,51 18,18 41,51 70,99l75 119 -148 0 -88 -133c-32,-48 -53,-77 -65,-90 -12,-12 -24,-21 -37,-25 -14,-5 -34,-7 -63,-7l-25 0 0 255 -123 0zm123 -352l92 0c59,0 95,-3 110,-8 15,-5 26,-13 35,-26 8,-12 12,-27 12,-45 0,-21 -5,-38 -16,-50 -11,-13 -27,-21 -47,-24 -10,-2 -40,-2 -90,-2l-96 0 0 155zm492 352l0 -610 452 0 0 103 -328 0 0 135 305 0 0 103 -305 0 0 166 340 0 0 103 -464 0zm1346 -74l-71 90c-35,-17 -68,-40 -100,-70 -25,22 -51,39 -79,49 -28,11 -61,16 -99,16 -76,0 -133,-21 -171,-64 -30,-33 -45,-71 -45,-114 0,-39 12,-75 35,-106 24,-31 59,-58 105,-81 -21,-25 -37,-49 -47,-71 -11,-23 -16,-44 -16,-64 0,-37 15,-68 44,-94 30,-26 72,-39 126,-39 53,0 94,14 124,41 30,27 44,60 44,99 0,24 -7,48 -21,70 -15,22 -44,47 -89,75l84 113c10,-17 19,-41 26,-69l106 24c-11,37 -20,65 -28,82 -7,17 -16,32 -25,44 13,12 30,25 51,40 21,15 36,24 46,29zm-319 -333l32 -24c23,-18 34,-36 34,-54 0,-15 -5,-27 -16,-38 -12,-11 -27,-16 -46,-16 -18,0 -33,5 -43,14 -11,9 -16,20 -16,32 0,15 9,32 27,53l28 33zm-46 128c-26,13 -46,30 -60,49 -13,19 -20,39 -20,59 0,25 9,46 25,62 17,16 39,24 66,24 18,0 36,-4 53,-11 17,-7 35,-19 55,-36l-119 -147zm678 279l0 -610 259 0c65,0 113,5 142,16 30,11 54,30 71,58 18,29 27,61 27,97 0,45 -13,83 -40,113 -27,30 -67,49 -120,57 26,15 48,32 65,51 18,18 41,51 70,99l75 119 -148 0 -88 -133c-32,-48 -54,-77 -65,-90 -12,-12 -24,-21 -37,-25 -14,-5 -34,-7 -63,-7l-25 0 0 255 -123 0zm123 -352l91 0c60,0 96,-3 111,-8 15,-5 26,-13 35,-26 8,-12 12,-27 12,-45 0,-21 -5,-38 -16,-50 -11,-13 -27,-21 -47,-24 -10,-2 -40,-2 -90,-2l-96 0 0 155zm492 352l0 -610 452 0 0 103 -328 0 0 135 305 0 0 103 -305 0 0 166 340 0 0 103 -464 0zm567 0l0 -610 185 0 110 416 108 -416 186 0 0 610 -115 0 0 -481 -120 481 -119 0 -120 -481 0 481 -115 0zm687 -302c0,-62 9,-114 28,-156 13,-32 32,-60 56,-84 24,-25 51,-43 79,-55 38,-16 82,-25 132,-25 90,0 162,28 216,84 54,56 81,134 81,234 0,98 -27,176 -80,231 -54,56 -126,84 -215,84 -91,0 -163,-28 -217,-83 -54,-56 -80,-132 -80,-230zm127 -4c0,70 16,122 48,158 32,35 72,53 121,53 50,0 90,-17 122,-53 31,-35 47,-88 47,-159 0,-70 -15,-123 -46,-157 -31,-35 -72,-52 -123,-52 -50,0 -91,18 -123,52 -31,35 -46,88 -46,158zm561 -304l225 0c51,0 90,3 116,11 36,11 67,29 92,56 26,27 45,60 58,99 13,39 20,87 20,145 0,50 -6,93 -19,129 -15,45 -37,81 -65,108 -21,21 -50,37 -86,49 -27,9 -64,13 -109,13l-232 0 0 -610zm124 103l0 404 92 0c34,0 59,-2 74,-6 20,-5 36,-14 49,-25 14,-12 24,-32 33,-59 8,-28 12,-65 12,-112 0,-47 -4,-83 -12,-109 -9,-25 -20,-45 -35,-59 -15,-14 -34,-24 -57,-28 -17,-4 -51,-6 -101,-6l-55 0zm492 507l0 -610 452 0 0 103 -328 0 0 135 305 0 0 103 -305 0 0 166 340 0 0 103 -464 0zm572 0l0 -605 124 0 0 502 306 0 0 103 -430 0zm513 0l0 -610 124 0 0 610 -124 0zm241 0l0 -610 120 0 251 409 0 -409 115 0 0 610 -124 0 -247 -401 0 401 -115 0zm900 -224l0 -103 265 0 0 243c-25,25 -63,47 -112,67 -49,19 -98,28 -149,28 -63,0 -119,-13 -166,-40 -48,-27 -83,-66 -107,-115 -24,-50 -36,-105 -36,-163 0,-64 13,-121 40,-170 27,-50 65,-88 117,-114 39,-20 88,-31 146,-31 76,0 135,16 178,48 42,32 69,76 82,132l-123 23c-9,-30 -25,-53 -49,-71 -23,-17 -53,-26 -88,-26 -54,0 -97,17 -128,51 -32,35 -48,85 -48,153 0,72 16,127 48,163 32,36 74,54 127,54 25,0 51,-5 77,-15 26,-10 48,-22 67,-37l0 -77 -141 0z"/>
  <g>
  </g>
  <g style="clip-path:url(#id0)">
   <g>
    <path class="fil5" d="M14139 11428l534 -54 0 -12c-16,-2 -32,-5 -48,-10l0 -276 -486 67 0 285z"/>
    <path class="fil5" d="M14822 11048l0 228 359 -41 1 7 -360 41 0 69c-37,10 -73,14 -110,13l0 5 629 -62 0 -201c2,0 3,-1 4,-1l0 -89 0 -41 -523 72z"/>
    <path class="fil5" d="M15341 11308l-629 62 0 278 633 -38 0 -193c-1,-1 -2,-1 -4,-1l0 -108zm-534 316l364 -22 0 8 -363 21 -1 -7z"/>
    <path class="fil5" d="M14673 11651l0 -277 -534 54 0 255 534 -32zm-154 -10l0 8 -291 16 0 -7 291 -17z"/>
    <g>
    </g>
   </g>
   <g style="clip-path:url(#id1)">
    <g>
    </g>
    <g style="clip-path:url(#id2)">
     <image x="9032" y="8788" width="7726" height="5518" xlink:href="LOGO-MELASTI_Images\LOGO-MELASTI_ImgID1.png"/>
    </g>
    <g style="clip-path:url(#id3)">
    </g>
   </g>
   <g style="clip-path:url(#id4)">
    <polygon class="fil6" points="14082,11748 12385,11703 11384,11678 11384,12375 13946,12299 14082,12318 "/>
    <polygon class="fil7 str0" points="11063,11970 11290,11970 11290,12007 11302,12007 11302,13498 11325,13509 11325,10880 11063,10973 "/>
    <polygon class="fil8 str1" points="10698,11970 11063,11970 11063,10973 10698,10937 "/>
    <line class="fil6 str2" x1="11063" y1="10973" x2="11063" y2= "11970" />
    <polygon class="fil9 str3" points="10756,9155 10756,8988 16331,10402 16331,10499 "/>
    <polyline class="fil6 str4" points="10756,8988 9571,10292 9571,10384 10756,9155 "/>
    <line class="fil6 str5" x1="13191" y1="12452" x2="15345" y2= "12355" />
    <polyline class="fil6" points="15954,12791 13891,13023 13891,13928 16024,13475 16026,12456 13885,12586 13885,12937 15954,12732 15954,12791 "/>
    <line class="fil6 str5" x1="14675" y1="12935" x2="14684" y2= "13730" />
    <line class="fil6 str5" x1="15369" y1="12857" x2="15369" y2= "13582" />
    <line class="fil6 str5" x1="13891" y1="13475" x2="15962" y2= "13133" />
    <line class="fil6 str5" x1="13891" y1="13475" x2="15962" y2= "13133" />
    <line class="fil6 str2" x1="15402" y1="12355" x2="16056" y2= "12379" />
    <polyline class="fil6 str5" points="15954,12791 15954,13455 13891,13901 "/>
    <line class="fil6 str5" x1="14673" y1="12378" x2="14673" y2= "11069" />
    <line class="fil6 str5" x1="14673" y1="12378" x2="14673" y2= "11069" />
    <polygon class="fil3 str5" points="12639,10710 12809,10735 12809,11568 12639,11568 "/>
    <polygon class="fil3" points="12639,10710 12483,10745 12483,11581 12639,11568 "/>
    <line class="fil6 str5" x1="12639" y1="11568" x2="12574" y2= "11751" />
    <polyline class="fil6 str5" points="12337,11762 12335,11805 12583,11797 13105,11808 13102,11776 "/>
    <polyline class="fil6" points="12410,11683 11389,11641 11389,10868 12483,10987 "/>
    <polygon class="fil10 str6" points="13943,11129 13030,11040 13030,11692 13943,11727 "/>
    <line class="fil6 str5" x1="13943" y1="11727" x2="14063" y2= "11727" />
    <line class="fil6 str6" x1="13030" y1="11366" x2="13943" y2= "11428" />
    <line class="fil6 str7" x1="13374" y1="11324" x2="13687" y2= "11348" />
    <polygon class="fil11 str8" points="14675,12935 13891,13023 13891,13475 14680,13345 "/>
    <polygon class="fil11 str8" points="14675,12935 14680,13345 15369,13231 15369,12857 "/>
    <polygon class="fil11 str8" points="15369,12857 15369,13231 15954,13135 15954,12791 "/>
    <polygon class="fil11 str8" points="14684,13730 14680,13345 13891,13475 13891,13901 "/>
    <polygon class="fil11 str8" points="14680,13345 14684,13730 15369,13582 15369,13231 "/>
    <polygon class="fil11 str8" points="15369,13231 15369,13582 15954,13455 15954,13135 "/>
    <polygon class="fil12" points="13885,12937 15954,12732 15376,12683 13885,12804 "/>
    <line class="fil6 str9" x1="15346" y1="12497" x2="15346" y2= "12686" />
    <polygon class="fil13 str0" points="15346,12497 15346,12685 15376,12683 15954,12732 15954,12791 15954,13135 15954,13455 16024,13475 16026,12456 "/>
    <polygon class="fil14 str0" points="13199,12375 13199,13241 13125,13254 13125,12378 12635,12396 12635,13323 12561,13333 12550,12448 12307,12408 12301,13370 12227,13382 12233,12411 11444,12440 11444,13487 11387,13499 11381,12442 11380,12442 11380,12375 14063,12286 14063,12343 13485,12365 13485,12439 13417,12441 13417,12367 "/>
    <polygon class="fil10 str0" points="11444,13465 12227,13356 12233,12411 11444,12440 "/>
    <polygon class="fil10 str0" points="12307,12408 12301,13345 12562,13309 12562,12399 "/>
    <polygon class="fil10 str0" points="12635,12396 12635,13299 13125,13231 13125,12378 "/>
    <line class="fil6 str7" x1="13374" y1="11649" x2="13687" y2= "11661" />
    <polygon class="fil15" points="11764,11579 12158,11598 12157,11615 11763,11596 "/>
    <path class="fil16" d="M13853 10189c-13,0 -23,-9 -23,-21 0,-5 3,-10 7,-14 -12,-4 -21,-12 -26,-23 -51,-5 -87,-18 -87,-33 0,-19 57,-35 129,-35 71,0 129,16 129,35 0,15 -37,28 -88,33 -4,11 -13,19 -25,23 4,4 7,9 7,14 0,12 -11,21 -23,21zm-1574 -667l-1523 -367 -1185 1229 2708 351 204 26 0 -16 156 -35 170 0 0 94 935 121 0 -18c38,-13 51,-19 109,-20 0,0 1,0 1,0 1,0 2,0 2,0 57,0 74,7 109,20l0 26 769 -139 3 -1 698 -126 3 -1 893 -167 -4052 -977zm2455 839c-13,0 -23,-9 -23,-20 0,-6 2,-11 6,-15 -11,-4 -20,-12 -25,-22 -51,-5 -88,-18 -88,-34 0,-19 58,-35 130,-35 71,0 129,16 129,35 0,16 -37,29 -88,34 -4,10 -14,18 -25,22 4,4 6,9 6,15 0,11 -10,20 -22,20zm701 145c-9,0 -17,-7 -17,-15 0,-5 2,-8 5,-11 -8,-3 -15,-9 -18,-17 -38,-3 -65,-13 -65,-24 0,-15 42,-26 95,-26 53,0 96,11 96,26 0,11 -27,21 -65,24 -4,8 -10,14 -19,17 3,3 5,6 5,11 0,8 -8,15 -17,15z"/>
    <path class="fil10 str10" d="M11761 11198l395 32 -1 17 -395 -32 1 -17zm-377 57l894 66 205 16 0 -350 -205 -23 -894 -96 0 387z"/>
    <path class="fil10 str11" d="M12278 11321l-894 -66 0 386 894 36 123 5 82 -101 0 -244 -205 -16zm-518 258l396 19 0 17 -397 -19 1 -17z"/>
    <polygon class="fil15" points="11765,11198 12158,11230 12156,11247 11763,11215 "/>
    <polygon class="fil17 str0" points="10631,13595 10632,10747 11384,10823 11387,13499 11325,13509 11325,10880 10698,10820 10698,13586 "/>
    <polyline class="fil6 str2" points="11325,10880 11063,10973 10698,10937 "/>
    <polygon class="fil18" points="11063,10973 11325,10880 10698,10820 10698,10937 "/>
    <line class="fil6 str1" x1="12574" y1="11751" x2="12576" y2= "11797" />
    <polyline class="fil6 str5" points="12483,11581 12337,11762 12574,11751 13102,11776 12809,11568 "/>
    <polygon class="fil19 str12" points="12483,11581 12401,11682 12401,11682 12337,11762 12574,11751 12639,11568 12483,11581 "/>
    <polygon class="fil20 str12" points="12639,11568 12574,11751 13102,11776 12809,11568 "/>
    <polygon class="fil21 str13" points="12574,11751 12337,11762 12335,11805 12576,11797 "/>
    <polygon class="fil22 str13" points="12574,11751 12576,11797 12583,11797 13105,11808 13102,11776 "/>
    <polygon class="fil23 str12" points="12483,11581 12639,11568 12639,10751 12639,10680 12483,10715 12483,10731 12483,10987 12483,11337 "/>
    <polyline class="fil6 str5" points="16003,10966 15657,11004 15657,12364 "/>
    <path class="fil24" d="M15524 11416c-40,10 -80,13 -119,10l-3 929 255 9 0 -1360 -219 -36 0 123c44,0 58,6 86,16l0 309z"/>
    <rect class="fil25 str0" x="10698" y="11970" width="592.298" height="35.9418"/>
    <polygon class="fil25 str0" points="11290,11597 10698,11573 10698,11609 11290,11633 "/>
    <polygon class="fil26 str0" points="10698,11609 10698,11632 11063,11648 11290,11633 "/>
    <polygon class="fil27 str0" points="10698,11292 10698,11218 11290,11259 11063,11313 "/>
    <polygon class="fil25 str0" points="11290,11223 10698,11182 10698,11218 11290,11259 "/>
    <line class="fil6 str1" x1="13030" y1="11040" x2="12809" y2= "11077" />
    <line class="fil6 str1" x1="13030" y1="11692" x2="12991" y2= "11697" />
    <polygon class="fil28 str12" points="12991,11697 13030,11692 13030,11366 13030,11040 12809,11077 12809,11568 "/>
    <polygon class="fil29 str12" points="12639,10782 12639,11568 12809,11568 12809,10804 12809,10704 12639,10680 "/>
    <polygon class="fil30 str0" points="15657,11004 15657,11254 16003,11230 16003,11272 15657,11291 15657,11609 16003,11593 16003,11634 15657,11647 15657,11971 16003,11967 16003,12009 15657,12009 15657,12364 16005,12377 16003,10966 "/>
    <polygon class="fil31 str2" points="16003,12009 16003,11967 15446,11974 15446,12009 "/>
    <polyline class="fil6 str0" points="10632,10747 10432,10930 10431,13447 10631,13595 "/>
    <polygon class="fil32 str0" points="10432,10911 10431,13447 10631,13595 10631,13423 10632,10747 "/>
    <polyline class="fil6 str1" points="14291,11720 14162,11817 14299,11926 14152,12027 14291,12134 14149,12240 14291,12344 14673,12362 "/>
    <g>
     <path class="fil33" d="M14288 11724c-3,-2 -3,-5 -1,-7 1,-2 4,-3 7,-1l123 93 128 -108 1 -1c1,-1 4,-1 6,0l124 80c2,2 3,5 2,7 -2,3 -5,3 -7,2l-122 -79 -124 105 139 104 106 -81c3,-2 6,-2 7,0 2,3 2,6 -1,8l-104 79 104 78c3,2 3,5 1,8 -1,2 -4,2 -7,1l-106 -80 -130 99 130 106 106 -78c3,-1 6,-1 7,1 2,3 2,6 -1,7l-104 77 105 85c2,2 2,5 0,7 -2,2 -5,3 -7,1l-106 -87 -131 96 124 104 114 -73c2,-2 5,-1 7,1 1,3 0,6 -2,7l-116 75c-2,2 -5,2 -7,0l-128 -108 -131 96c-2,2 -5,1 -7,-1 -1,-2 -1,-6 1,-7l129 -95 -129 -108 0 0c0,0 -1,0 -1,0 -1,-3 -1,-6 1,-7l130 -100 -129 -106c0,0 -1,0 -1,-1l0 0 0 0 0 0 0 0 0 0 -1 -1 0 0 0 0 0 0 0 0 0 0 0 -1 0 0 0 0 0 0c0,-2 0,-3 1,-4 0,0 1,0 1,-1l120 -101 -121 -91zm267 201l-138 -104 -117 99 126 104 129 -99zm-130 314l131 -96 -130 -106 -127 97 126 105zm-136 -323c2,-1 4,-1 6,0l-6 0z"/>
    </g>
    <polygon class="fil34 str1" points="14409,11815 14288,11724 14291,11720 14162,11817 14288,11917 14289,11916 "/>
    <polygon class="fil34 str1" points="14549,11710 14425,11815 14564,11919 14670,11838 14673,11842 14673,11785 14671,11789 "/>
    <polygon class="fil34 str1" points="14555,11925 14417,11821 14300,11920 14426,12024 "/>
    <polygon class="fil34 str1" points="14418,12030 14295,11928 14152,12027 14288,12131 14288,12130 "/>
    <polygon class="fil34 str1" points="14426,12037 14299,12134 14425,12239 14556,12143 "/>
    <polygon class="fil34 str1" points="14434,12031 14564,12137 14670,12059 14673,12063 14673,12008 14670,12012 14564,11932 "/>
    <polygon class="fil34 str1" points="14564,12150 14433,12246 14557,12350 14671,12277 14673,12281 14673,12233 14670,12237 "/>
    <polygon class="fil34 str1" points="14417,12245 14288,12137 14288,12136 14149,12240 14291,12344 14288,12340 "/>
    <polygon class="fil34 str1" points="14425,12252 14299,12344 14548,12356 "/>
    <polygon class="fil34 str1" points="14417,11809 14541,11705 14298,11719 "/>
    <polygon class="fil34 str1" points="14673,11848 14572,11925 14673,12001 "/>
    <polygon class="fil34 str1" points="14673,12070 14572,12144 14673,12226 "/>
    <polygon class="fil34 str1" points="14673,12287 14565,12357 14673,12362 "/>
    <path class="fil35" d="M14909 12379c-2,1 -5,1 -7,-2 -1,-2 -1,-5 2,-7l147 -99 -151 -119 -148 103 142 116c2,2 2,5 1,7 -2,3 -5,3 -7,1l-147 -120c-1,0 -1,-1 -1,-1 -2,-2 -1,-6 1,-7l150 -106 -147 -117c-1,0 -1,0 -2,-1 -1,-2 -1,-5 1,-7l141 -105 -153 -110 0 0c-1,0 -1,0 -1,-1 -2,-2 -1,-5 1,-7l171 -119c2,-1 4,-1 6,0l150 108 171 -127c2,-2 4,-2 6,0l113 88c3,1 3,5 1,7 -1,2 -5,2 -7,1l-110 -86 -165 123 161 116 114 -80c3,-2 6,-1 7,1 2,2 2,5 -1,7l-112 78 112 81c3,1 3,5 1,7 -1,2 -4,3 -7,1l-114 -82 -161 113 162 116 114 -77c2,-1 5,-1 7,2 1,2 0,5 -2,7l-110 74 110 80c3,1 3,4 1,7 -1,2 -4,2 -7,1l-113 -82 -161 110 110 87c2,1 3,4 1,7 -2,2 -5,2 -7,0l-113 -89 -150 102zm150 -114l161 -109 -162 -116 -150 106 151 119zm-1 -466l-157 116 157 113 161 -114 -161 -115zm-165 123l-138 102 145 115 149 -105 -156 -112zm0 -13l156 -117 -144 -103 -162 112 150 108z"/>
    <path class="fil34 str1" d="M14731 11797l165 -114 -184 11 0 689 171 -7 -142 -117 -1 -1c-2,-2 -1,-6 1,-7l150 -106 -147 -117 -2 -1c-1,-2 -1,-5 1,-7l141 -105 -153 -110 -1 -1c-2,-2 -1,-5 1,-7z"/>
    <polygon class="fil34 str1" points="14905,11689 14743,11801 14893,11909 15049,11792 "/>
    <path class="fil34 str1" d="M15232 11669l-165 123 161 116 114 -80c1,-1 2,-1 3,-1l0 -71c-1,0 -2,-1 -3,-1l-110 -86z"/>
    <polygon class="fil34 str1" points="15345,11838 15236,11914 15345,11993 "/>
    <polygon class="fil34 str1" points="15219,11914 15058,11799 14901,11915 15058,12028 "/>
    <polygon class="fil34 str1" points="15049,12034 14893,11922 14755,12024 14900,12139 "/>
    <polygon class="fil34 str1" points="15058,12040 14908,12146 15059,12265 15220,12156 "/>
    <path class="fil34 str1" d="M15067 12034l162 116 114 -77c0,0 1,-1 2,-1l0 -68c-1,0 -2,0 -3,-1l-114 -82 -161 113z"/>
    <polygon class="fil34 str1" points="15345,12084 15238,12156 15345,12233 "/>
    <path class="fil34 str1" d="M15342 12244l-113 -82 -161 110 110 87c1,0 2,2 2,3l165 -7 0 -110c-1,0 -2,-1 -3,-1z"/>
    <path class="fil34 str1" d="M15051 12271l-151 -119 -148 103 142 116c1,1 2,3 2,4l5 0c0,-2 1,-4 3,-5l147 -99z"/>
    <polygon class="fil34 str1" points="15059,12277 14916,12374 15167,12363 "/>
    <path class="fil36 str1" d="M14063 11727l0 -630 -98 26 0 167c-8,2 -15,3 -22,5l0 133 0 299 120 0z"/>
    <ellipse class="fil37 str2" cx="13853" cy="10098" rx="129" ry="35"/>
    <path class="fil38 str2" style="mask:url(#id5)" d="M13853 10076c24,0 44,18 44,40 0,17 -11,32 -28,38 4,4 7,9 7,14 0,12 -11,21 -23,21 -13,0 -23,-9 -23,-21 0,-5 3,-10 7,-14 -17,-6 -29,-21 -29,-38 0,-22 20,-40 45,-40z"/>
    <path class="fil39 str2" d="M13744 10907c38,-13 51,-19 110,-20 58,0 75,7 111,20 0,128 0,255 0,383 -74,19 -148,20 -221,0 0,-128 0,-255 0,-383z"/>
    <line class="fil6 str5" x1="13853" y1="10189" x2="13853" y2= "10887" />
    <line class="fil6 str2" x1="13856" y1="10189" x2="13856" y2= "10887" />
    <line class="fil6 str5" x1="14734" y1="10361" x2="14734" y2= "11060" />
    <line class="fil6 str6" x1="15435" y1="10506" x2="15435" y2= "11099" />
    <polygon class="fil15 str14" points="14807,11624 15171,11602 15171,11610 14808,11631 "/>
    <polygon class="fil15 str14" points="14228,11658 14519,11641 14519,11649 14228,11665 "/>
    <polygon class="fil31 str2" points="16003,11634 16003,11593 15446,11620 15446,11655 "/>
    <polygon class="fil31 str2" points="16003,11272 16003,11230 15446,11268 15446,11303 "/>
    <polygon class="fil34 str1" points="14557,11704 14673,11779 14673,11697 "/>
    <polygon class="fil34 str1" points="14913,11682 15058,11786 15223,11663 "/>
    <polygon class="fil34 str1" points="15240,11662 15345,11744 15345,11656 "/>
    <polygon class="fil15 str14" points="14807,11278 15181,11235 15182,11242 14808,11285 "/>
    <line class="fil6 str1" x1="14139" y1="11143" x2="14139" y2= "11683" />
    <polygon class="fil40 str1" points="14139,11683 14139,11143 14103,11148 14103,11685 "/>
    <line class="fil6 str15" x1="14139" y1="11428" x2="15345" y2= "11307" />
    <polygon class="fil15 str14" points="14228,11344 14524,11309 14525,11316 14229,11351 "/>
    <line class="fil6 str16" x1="9574" y1="14234" x2="13191" y2= "13618" />
    <line class="fil6 str16" x1="8564" y1="13667" x2="10447" y2= "13445" />
    <line class="fil6 str16" x1="16749" y1="13784" x2="14984" y2= "14305" />
    <line class="fil6 str16" x1="11363" y1="14305" x2="10158" y2= "13479" />
    <line class="fil6 str16" x1="12043" y1="14305" x2="13631" y2= "13967" />
    <line class="fil6 str16" x1="16749" y1="13600" x2="16185" y2= "13493" />
    <line class="fil6 str16" x1="15954" y1="13455" x2="16024" y2= "13475" />
    <line class="fil6 str16" x1="14745" y1="13822" x2="16514" y2= "14305" />
    <line class="fil6 str16" x1="16749" y1="14114" x2="15151" y2= "13729" />
    <line class="fil6 str16" x1="16749" y1="14202" x2="16447" y2= "14305" />
    <line class="fil6 str16" x1="14276" y1="13929" x2="15472" y2= "14305" />
    <line class="fil6 str16" x1="13531" y1="14305" x2="16652" y2= "13520" />
    <line class="fil6 str16" x1="16749" y1="13736" x2="15881" y2= "13562" />
    <line class="fil6 str16" x1="16749" y1="13532" x2="16331" y2= "13459" />
    <line class="fil6 str16" x1="16749" y1="13907" x2="15525" y2= "13643" />
    <line class="fil6 str16" x1="9574" y1="14014" x2="13191" y2= "13466" />
    <line class="fil6 str16" x1="13440" y1="14305" x2="11455" y2= "13463" />
    <line class="fil6 str16" x1="11940" y1="13396" x2="14438" y2= "14305" />
    <line class="fil6 str16" x1="10951" y1="13544" x2="12402" y2= "14305" />
    <line class="fil6 str16" x1="10630" y1="14305" x2="13191" y2= "13799" />
    <line class="fil6 str16" x1="9574" y1="13830" x2="13191" y2= "13320" />
    <polyline class="fil6 str16" points="10306,14305 9574,13548 9574,10384 "/>
    <line class="fil6 str16" x1="13191" y1="13596" x2="12374" y2= "13335" />
    <line class="fil6 str16" x1="12786" y1="13278" x2="13191" y2= "13402" />
    <polygon class="fil41" points="13744,11110 13744,10925 12809,10804 12809,11077 13030,11040 "/>
    <polygon class="fil42 str1" points="11384,12375 11384,12375 "/>
    <polygon class="fil43" points="10431,13447 10432,10930 10432,10911 10632,10747 11384,10823 11384,10868 11389,10869 11389,10868 12278,10964 12483,10987 12483,10761 12279,10735 9574,10384 9574,13548 10158,13479 "/>
    <path class="fil44" d="M15393 10912l0 2 663 -94 275 40 0 -361 -938 175c-477,86 -951,173 -1428,259l0 190 98 -26 457 -64 189 -26 25 -3 659 -92z"/>
    <ellipse class="fil45 str2" cx="14734" cy="10270" rx="129" ry="35"/>
    <path class="fil46 str2" style="mask:url(#id7)" d="M14734 10248c24,0 44,18 44,41 0,17 -12,31 -28,37 4,4 6,9 6,15 0,11 -10,20 -22,20 -13,0 -23,-9 -23,-20 0,-6 2,-11 6,-15 -16,-6 -28,-20 -28,-37 0,-23 20,-41 45,-41z"/>
    <ellipse class="fil47 str2" cx="15435" cy="10439" rx="96" ry="26"/>
    <path class="fil48 str2" style="mask:url(#id9)" d="M15435 10422c18,0 33,14 33,30 0,13 -9,24 -21,28 3,3 5,6 5,11 0,8 -8,15 -17,15 -9,0 -17,-7 -17,-15 0,-5 2,-8 5,-11 -12,-4 -21,-15 -21,-28 0,-16 15,-30 33,-30z"/>
    <polygon class="fil49 str1" points="16003,10966 16003,10881 15417,10961 15657,11004 "/>
    <line class="fil6 str2" x1="14737" y1="10361" x2="14737" y2= "11060" />
    <polygon class="fil10 str0" points="10698,13573 10698,12006 11302,12007 11302,13498 "/>
    <rect class="fil50" x="11043" y="12515" width="12.6701" height="528.948"/>
    <rect class="fil50" transform="matrix(-0.0592769 0.95481 -0.418044 0.0142037 11956.7 12515.3)" width="13.23" height="552.32"/>
    <polygon class="fil6 str17" points="11014,12067 11255,12067 11250,13449 11014,13479 "/>
    <polygon class="fil6 str17" points="10739,12060 10970,12060 10964,13486 10739,13517 "/>
    <rect class="fil50" x="10919" y="12524" width="12.6701" height="528.948"/>
    <polygon class="fil6 str17" points="11532,12484 12147,12463 12147,12708 11532,12744 "/>
    <polygon class="fil6 str17" points="11532,12809 12147,12768 12147,13018 11532,13068 "/>
    <polygon class="fil6 str17" points="11532,13138 12147,13078 12147,13314 11532,13398 "/>
    <polygon class="fil50" points="11957,12824 11956,12837 11725,12854 11726,12841 "/>
    <polygon class="fil50" points="11957,13142 11956,13155 11725,13177 11726,13165 "/>
    <polygon class="fil6 str16" points="14684,13730 13891,13901 13891,13928 16024,13475 15954,13455 15369,13582 "/>
    <polygon class="fil10 str0" points="14063,12343 13485,12365 13485,12439 14063,12413 "/>
    <polygon class="fil51 str0" points="13885,12586 13885,12804 15346,12685 15346,12497 "/>
    <polygon class="fil10 str0" points="13199,12451 13199,12375 13417,12367 13417,12441 "/>
    <polygon class="fil52 str0" points="13191,13799 13191,12452 13821,12516 13810,14036 "/>
    <polygon class="fil53" points="14104,12573 14035,12577 14035,12791 14104,12786 "/>
    <polygon class="fil54" points="14104,12573 14127,12572 14127,12784 14104,12784 "/>
    <polygon class="fil15 str13" points="14233,12630 14523,12657 14522,12664 14232,12637 "/>
    <polygon class="fil55 str17" points="14818,12691 15108,12718 15107,12726 14817,12699 "/>
    <polygon class="fil56 str0" points="13821,12516 16056,12387 16056,12379 16005,12377 15402,12355 15345,12355 14712,12383 14063,12413 13191,12452 "/>
    <path class="fil57 str0" d="M16056 12387l-2235 129 -11 1520 2521 -577 0 -2599 -275 -40 0 1567zm-32 1088l2 -1019 -2141 130 0 351 2069 -205 0 59 -2063 232 0 905 2133 -453z"/>
    <path class="fil58" d="M15406 10963l0 129c7,-1 16,-1 26,-1 1,0 2,0 3,0l0 -127 -18 -3 -11 2z"/>
    <path class="fil59 str18" d="M14712 11694l0 0 184 -11 6 -5c2,-1 4,-1 6,0l5 4 310 -19 6 -4c2,-2 4,-2 6,0l5 3 105 -6 0 88 3 3c3,1 3,5 1,7 -1,1 -2,2 -4,2l0 71c2,0 3,0 4,2 2,2 2,5 -1,7l-3 2 0 155 3 2c3,1 3,5 1,7 -1,1 -2,2 -4,2l0 68c2,0 4,1 5,3 1,2 0,5 -2,7l-3 2 0 149 3 3c3,1 3,4 1,7 -1,1 -2,2 -4,2l0 110 57 0 2 -1263 2 0 0 -129 22 -3 575 -79 2 1496 51 2 0 -1559 -635 88 0 0 -901 125 0 0 -457 64 0 630 0 559 0 57 0 70 649 -30 0 -689zm0 -46l0 -584 633 -88 0 41 0 89 0 504 -633 38zm-65 4l-544 33 0 -537 522 -72 0 0 48 -7 0 582 -26 1 0 0zm-356 68l3 -4 4 3 243 -14 5 -5c1,-1 4,-1 6,0l5 4 116 -7 0 665 -382 -18 -142 -104 142 -106 -139 -107 147 -101 -137 -109 129 -97z"/>
    <path class="fil60 str2" d="M15341 11107c32,-11 43,-16 91,-16 49,-1 63,5 92,16 0,103 0,206 0,308 -61,16 -122,17 -183,0 0,-102 0,-205 0,-308z"/>
    <line class="fil6 str2" x1="15438" y1="10506" x2="15438" y2= "11099" />
    <path class="fil61 str2" d="M14625 11010c34,-11 46,-17 98,-18 52,0 67,6 99,18 0,114 0,228 0,342 -66,17 -132,18 -197,0 0,-114 0,-228 0,-342z"/>
    <polygon class="fil6 str12" points="12359,12473 12518,12467 12518,13249 12359,13274 "/>
    <polygon class="fil6 str12" points="12698,12467 13061,12452 13059,12657 12698,12673 "/>
    <polygon class="fil6 str12" points="12698,12997 13061,12962 13059,13148 12698,13197 "/>
    <polygon class="fil6 str12" points="12698,12730 13061,12712 13062,12897 12698,12930 "/>
    <polygon class="fil3 str19" points="12993,12492 12993,12504 12777,12513 12778,12501 "/>
    <polygon class="fil3 str19" points="12993,12754 12993,12766 12777,12778 12778,12766 "/>
    <polygon class="fil3 str19" points="12993,13008 12993,13020 12777,13042 12778,13030 "/>
    <polygon class="fil62" points="12484,12748 12496,12750 12495,12965 12483,12964 "/>
   </g>
  </g>
  <polygon class="fil6" points="16572,14217 11721,14217 11721,9227 16572,9227 "/>
  <g>
   <line class="fil6 str20" x1="7331" y1="13286" x2="7371" y2= "13286" />
   <polygon class="fil2 str21" points="7673,12642 7697,13070 7331,13287 7331,12752 "/>
   <polygon class="fil2 str21" points="7673,12262 7697,12689 7331,12906 7331,12371 "/>
   <rect class="fil63" x="8429" y="10247" width="2938" height="3008"/>
   <polygon class="fil62" points="10888,11598 10888,10247 11304,10247 11304,13255 10884,12290 "/>
   <polyline class="fil6 str21" points="9117,12290 10882,12290 11364,13255 8593,13255 "/>
   <line class="fil6 str21" x1="9478" y1="12290" x2="9114" y2= "13255" />
   <line class="fil6 str21" x1="9802" y1="12290" x2="9665" y2= "13255" />
   <line class="fil6 str21" x1="10251" y1="13255" x2="10097" y2= "12290" />
   <line class="fil6 str21" x1="10819" y1="13255" x2="10472" y2= "12290" />
   <line class="fil6 str21" x1="9093" y1="12468" x2="10968" y2= "12468" />
   <line class="fil6 str21" x1="8999" y1="12649" x2="11059" y2= "12649" />
   <line class="fil6 str21" x1="8815" y1="12952" x2="11213" y2= "12952" />
   <polygon class="fil2 str21" points="9777,12468 9802,12290 9478,12290 9411,12468 "/>
   <polygon class="fil2 str21" points="9751,12649 9777,12468 9411,12468 9343,12649 "/>
   <polygon class="fil2 str21" points="9708,12952 9751,12649 9343,12649 9229,12952 "/>
   <path class="fil2 str21" d="M10180 12811l-26 -162 -403 0 -43 303 494 0 0 -5c-5,-3 -9,-6 -13,-9 -7,-7 -12,-15 -14,-19 -2,-5 -2,-7 -3,-9 0,-2 -1,-4 -1,-7 0,-3 1,-8 2,-17 1,-9 3,-22 5,-39 1,-11 1,-23 2,-36z"/>
   <polygon class="fil2 str21" points="9673,13201 9708,12952 9229,12952 9135,13201 "/>
   <polygon class="fil2 str21" points="9673,13201 9135,13201 9114,13255 9665,13255 "/>
   <polygon class="fil2 str21" points="10242,13201 10202,12952 9708,12952 9673,13201 "/>
   <polygon class="fil2 str21" points="10242,13201 9673,13201 9665,13255 10251,13255 "/>
   <path class="fil2 str21" d="M9135 13201l94 -249 -413 0c-53,83 -108,167 -162,249l481 0z"/>
   <path class="fil2 str21" d="M9135 13201l-481 0c-12,18 -24,36 -36,54l496 0 21 -54z"/>
   <path class="fil2 str21" d="M9229 12952l114 -303 -344 0c-54,96 -117,199 -183,303l413 0z"/>
   <path class="fil2 str21" d="M9411 12468l67 -178 -361 0 -9 29c0,9 -1,18 -1,26 -2,60 -7,107 -14,123l318 0z"/>
   <path class="fil42 str21" d="M9093 12468c-27,56 -59,117 -94,181 35,-64 67,-125 94,-181z"/>
   <path class="fil2 str21" d="M9093 12468c-27,56 -59,117 -94,181 35,-64 67,-125 94,-181zm250 181l68 -181 -318 0c-27,56 -59,117 -94,181l344 0z"/>
   <polygon class="fil2 str21" points="10126,12468 10097,12290 9802,12290 9777,12468 "/>
   <polygon class="fil2 str21" points="10154,12649 10126,12468 9777,12468 9751,12649 "/>
   <polygon class="fil2 str21" points="10799,13201 10710,12952 10202,12952 10242,13201 "/>
   <polygon class="fil2 str21" points="10799,13201 10242,13201 10251,13255 10819,13255 "/>
   <polygon class="fil2 str21" points="11296,13201 10799,13201 10819,13255 11364,13255 11296,13119 "/>
   <polygon class="fil2 str21" points="11296,13119 11213,12952 10710,12952 10799,13201 11338,13202 "/>
   <polygon class="fil2 str21" points="10536,12468 10472,12290 10097,12290 10126,12468 "/>
   <polygon class="fil2 str21" points="10601,12649 10536,12468 10126,12468 10154,12649 "/>
   <polygon class="fil2 str21" points="10710,12952 10601,12649 10154,12649 10180,12811 10202,12947 10202,12952 "/>
   <polygon class="fil2 str21" points="11213,12952 10882,12290 10472,12290 10536,12468 10601,12649 10710,12952 "/>
   <path class="fil64 str22" d="M11258 12341c0,-35 0,-40 0,-43 0,-4 0,-5 -7,-7 -7,-1 -22,-2 -34,-3 -13,0 -24,0 -42,0 -17,0 -39,0 -70,0 -31,0 -70,0 -108,0 -39,1 -77,1 -97,11 -21,10 -25,29 -27,40 -2,11 -2,14 -6,17 -4,2 -13,4 -27,6 -15,2 -36,3 -60,5 -24,2 -52,4 -85,5 -33,1 -72,1 -117,1 -45,0 -96,0 -148,-1 -53,-1 -106,-3 -152,-8 -46,-5 -84,-12 -115,-18 -32,-6 -56,-11 -74,-15 -18,-4 -28,-8 -36,-12 -9,-3 -16,-6 -19,-7 -4,-1 -4,-1 -3,16 0,17 1,51 8,80 6,29 17,52 31,75 14,24 32,46 51,68 19,21 41,41 57,54 16,12 27,18 85,24 57,5 162,11 250,15 87,5 156,8 226,8 71,1 143,0 197,0 54,-1 90,-2 123,-9 32,-6 62,-17 85,-28 23,-11 40,-21 54,-34 14,-12 26,-26 36,-38 10,-13 18,-23 22,-61 4,-39 3,-105 2,-141z"/>
   <path class="fil65 str23" d="M11041 12649c0,9 0,22 6,22l28 -1 113 2c16,1 29,16 38,32 6,10 12,24 14,40 3,16 2,34 -3,49 -5,15 -13,26 -26,33 -13,7 -30,10 -44,12 -14,1 -26,1 -38,1 -13,0 -27,0 -39,0 -12,-1 -22,-2 -28,-1 -6,0 -9,2 -10,4 -2,2 -2,4 1,6 2,1 7,3 10,6 4,3 5,7 7,11 2,3 4,7 7,14 3,6 7,16 10,28 3,12 6,26 7,38 2,11 2,21 0,29 -2,7 -6,13 -12,18 -6,5 -15,10 -21,14 -7,3 -11,6 -19,9 -7,2 -16,4 -33,4 -17,0 -42,-2 -76,-3 -33,-1 -76,-1 -123,-2 -47,-2 -98,-5 -159,-8 -61,-3 -132,-7 -195,-11 -64,-4 -120,-7 -158,-14 -39,-7 -61,-16 -77,-24 -15,-7 -25,-13 -32,-19 -7,-7 -12,-15 -14,-19 -2,-5 -2,-7 -3,-9 0,-2 -1,-4 -1,-7 0,-3 1,-8 2,-17 1,-9 3,-22 5,-39 1,-17 2,-38 4,-61 1,-22 3,-45 5,-73 3,-27 5,-59 8,-90l284 20 260 9 258 -2 44 -1z"/>
   <polygon class="fil6 str1" points="7371,13292 7375,12384 8555,12371 8555,13292 "/>
   <path class="fil6 str21" d="M8555 13292c37,-8 55,-20 65,-41 35,-72 37,-772 35,-880l-100 0"/>
   <path class="fil6 str1" d="M8618 13255c175,-264 369,-562 475,-787 26,-56 13,-469 14,-542 1,-38 -14,-69 -31,-84l-448 480 27 49"/>
   <line class="fil6 str1" x1="8634" y1="12325" x2="7381" y2= "12330" />
   <path class="fil6 str21" d="M7375 12384c-1,-17 -1,-34 3,-47 3,-13 12,-22 89,-64 77,-42 223,-118 363,-191 141,-73 275,-143 348,-181 73,-39 84,-45 94,-48 9,-4 17,-4 28,-4 11,0 26,0 129,0 102,0 293,0 406,-2 113,-1 147,-2 170,-3 24,-2 37,-3 47,-3 10,-1 17,0 21,0 3,1 3,1 3,1"/>
   <polygon class="fil6 str1" points="8360,11862 9017,11861 8575,12297 7595,12307 "/>
   <path class="fil66 str21" d="M8631 13201c24,-180 26,-735 24,-830l-100 0 0 830 0 91c37,-8 55,-20 65,-41 4,-9 8,-26 11,-50z"/>
   <polygon class="fil67 str21" points="8555,13201 8555,12371 7375,12384 7371,13201 7371,13292 8555,13292 "/>
   <path class="fil68 str21" d="M8626 12325l-1245 5c-2,3 -3,5 -3,7 -4,13 -4,30 -3,47l1180 -13c34,0 67,0 101,0 -3,-20 -7,-33 -30,-46z"/>
   <path class="fil69 str21" d="M8653 13201c166,-251 341,-522 440,-733 26,-57 13,-469 14,-542 1,-38 -14,-69 -31,-84l-448 480 2 3 1 3c19,12 22,25 25,43l-1 0 0 0c2,95 0,650 -24,830l22 0z"/>
   <path class="fil70" d="M9107 12345c6,-145 -1,-367 0,-419 1,-17 -2,-32 -6,-45 -33,35 -65,70 -98,105 -33,35 -66,71 -99,106 -32,36 -63,72 -89,102 -25,31 -44,55 -60,76 -16,20 -27,37 -34,52 -6,15 -7,29 0,39 6,10 19,17 36,16 18,0 39,-7 64,-21 25,-14 54,-35 83,-49 30,-15 61,-23 88,-28 28,-5 53,-6 69,-4 15,2 22,7 28,15 6,8 13,17 16,27 3,10 2,20 2,28z"/>
   <polygon class="fil71 str21" points="8575,12297 9017,11861 8360,11862 7595,12307 "/>
   <path class="fil3" d="M8332 11879c0,0 0,0 0,0 -11,6 -25,14 -33,21 -8,7 -10,13 -7,27 3,13 12,35 16,63 3,27 0,61 -1,98 -2,37 -3,78 -4,105 0,26 0,39 0,54 0,16 0,34 2,21 2,-12 6,-57 10,-97 3,-40 6,-76 9,-113 3,-37 5,-74 8,-86 3,-11 6,5 6,27 1,22 0,51 -1,84 0,33 1,70 1,105 0,35 0,67 3,85 3,19 9,23 12,-14 4,-37 6,-115 10,-165 3,-50 8,-73 13,-94 4,-22 8,-42 10,-60 1,-18 0,-33 -5,-45 -5,-13 -13,-23 -21,-25 -8,-3 -16,2 -28,9z"/>
   <path class="fil72 str21" d="M8628 12322l448 -480 -3 -1c-4,0 -11,-1 -21,0 -10,0 -23,1 -47,3 -23,1 -57,2 -170,3 -113,2 -304,2 -406,2 -103,0 -118,0 -129,0 -11,0 -19,0 -28,4 -10,3 -21,9 -94,48 -73,38 -207,108 -348,181 -140,73 -286,149 -363,191 -63,34 -80,47 -86,57l1245 -5c0,0 1,0 1,0l3 0 -2 -3zm-1033 -15l737 -428 28 -17 657 -1 -442 436 -980 10z"/>
   <path class="fil50" d="M8832 12104c-9,10 -38,41 -47,45 -8,5 -16,4 -22,-1 -6,-4 -11,-13 -16,-21l294 -286 21 -1 9 7 -10 11 -229 246z"/>
   <path class="fil73" d="M8323 11800c0,9 -8,18 -18,18 -10,0 -18,-8 -18,-18 0,-10 0,-21 0,-31 0,-21 1,-42 -1,-63 -4,-46 -25,-80 -54,-99 -17,-12 -38,-19 -59,-21 -22,-2 -44,2 -65,11 -37,17 -69,53 -85,108l0 117 0 0 0 191c0,10 -8,18 -18,18 -10,0 -18,-8 -18,-18l0 -191 0 0 0 0 1 -118c-1,-2 0,-4 0,-6 18,-68 59,-112 105,-133 27,-12 55,-17 82,-15 28,2 54,11 77,27 38,25 65,68 70,127 2,21 1,43 1,65 0,10 0,21 0,31z"/>
   <path class="fil74 str24" d="M10050 12254c-4,5 -10,20 -11,32 -1,13 1,21 36,34 34,13 101,29 231,37 131,8 327,7 427,6 99,0 103,-1 105,-4 3,-4 4,-10 6,-18 3,-7 6,-15 -13,-17 -19,-3 -61,1 -102,3 -40,1 -79,2 -115,2 -37,0 -71,0 -106,0 -36,0 -73,0 -109,0 -37,0 -73,-1 -103,-2 -30,-1 -55,-3 -81,-7 -26,-4 -54,-9 -77,-15 -23,-7 -42,-15 -55,-23 -12,-7 -19,-14 -23,-20 -4,-7 -6,-13 -10,-8z"/>
   <path class="fil75 str21" d="M10668 12176c-91,-3 -265,-1 -370,1 -105,3 -141,7 -171,16 -30,8 -54,21 -66,33 -11,12 -11,22 -3,36 8,13 25,28 62,40 37,12 94,21 153,25 58,3 118,2 188,2 69,0 148,1 209,0 61,-1 104,-3 134,-2 31,0 49,2 54,0 4,-3 -6,-10 -11,-17 -6,-7 -7,-13 -15,-28 -9,-15 -25,-37 -36,-53 -12,-17 -18,-26 -25,-35 -6,-8 -13,-16 -103,-18z"/>
   <path class="fil76 str18" d="M10903 12162c-59,-12 -104,-2 -119,49 3,5 7,11 12,18 11,16 27,38 36,53 2,3 3,6 4,8 5,9 6,15 11,20 5,7 15,14 11,17 -2,1 -7,1 -15,1 5,3 3,8 1,13 -2,8 -3,14 -6,18 0,0 -1,1 -2,1l0 2 4 0c14,-2 23,-4 27,-6 4,-3 4,-6 6,-17 2,-9 5,-23 17,-34 3,-2 6,-4 10,-6 20,-10 58,-10 97,-11 38,0 77,0 108,0l29 0c-24,-1 -46,-2 -65,-4 -35,-3 -58,-9 -72,-13 -3,-1 -6,-2 -9,-3 -12,-3 -12,-3 -19,-8 -6,-4 -20,-13 -32,-22 -12,-9 -24,-20 -29,-31 -6,-12 -6,-24 -5,-45z"/>
   <path class="fil77 str22" d="M11001 11591c-8,0 -17,0 -26,1 -9,1 -18,3 -24,6 -6,3 -9,6 -13,15 -4,8 -9,22 -12,41 -3,19 -5,43 -8,116 -3,72 -7,192 -9,267 -3,75 -5,104 -6,125 -1,21 -1,33 5,45 5,11 17,22 29,31 12,9 26,18 32,22 7,5 7,5 19,8 13,4 38,12 81,16 43,4 104,5 165,5 7,1 15,3 20,-1 6,-5 10,-14 12,-67 2,-54 2,-152 2,-233 0,-82 0,-149 0,-197 0,-47 0,-77 -1,-101 -2,-24 -6,-43 -17,-58 -10,-15 -27,-27 -44,-36 -17,-9 -34,-15 -54,-19 -20,-4 -43,-5 -60,-5 -18,-1 -30,-1 -40,1 -9,1 -17,4 -25,8 -8,3 -17,7 -26,10z"/>
   <path class="fil78" d="M11021 11712c-36,64 -18,166 -24,263l0 296c14,4 37,10 72,13 19,2 41,3 65,4 31,1 66,1 100,1 4,1 8,1 12,1 3,0 6,-1 8,-2 6,-5 10,-14 12,-67 2,-54 2,-152 2,-233l0 -197c0,-47 0,-77 -1,-101 -1,-12 -3,-22 -5,-32 -73,-12 -107,-13 -181,-2l-35 -24c-46,-35 -59,-38 -109,-17 0,1 -1,2 -2,4 52,15 88,30 86,93z"/>
   <path class="fil6 str21" d="M9641 11611c-2,230 -6,464 -23,693 -2,27 17,40 40,47 23,7 50,8 69,9 18,-1 46,-2 68,-9 24,-7 42,-20 40,-47 -16,-229 -21,-463 -23,-693"/>
   <path class="fil79 str22" d="M9641 11615c-2,219 -6,442 -21,661l-1 0c0,4 0,23 -1,28 -2,27 17,40 40,47 23,7 50,8 69,9 18,-1 46,-2 68,-9 24,-7 42,-20 40,-47 0,-5 -1,-24 -1,-28l-1 0c-14,-219 -19,-442 -21,-661 -1,0 -2,0 -3,0 -57,-1 -111,-1 -168,0z"/>
   <path class="fil80" d="M9673 11847c0,126 1,248 6,374 3,-141 4,-234 -6,-374z"/>
   <path class="fil81" d="M9740 11620c-65,103 -84,132 -65,286 9,69 140,158 134,-54 -1,-38 35,-212 -69,-232z"/>
   <path class="fil80" d="M9776 11837c0,153 2,302 11,455 7,-172 9,-284 -11,-455z"/>
   <path class="fil82 str24" d="M9640 11615c-133,2 -238,-25 -301,-155 254,0 509,0 763,0 -63,131 -159,158 -293,155 -57,-1 -112,-1 -169,0z"/>
   <path class="fil62 str23" d="M9339 11460l757 0c-81,-41 -75,-40 -171,-42 -69,1 -138,1 -207,2 -70,-1 -139,-1 -208,-2 -96,2 -90,1 -171,42z"/>
   <path class="fil74 str25" d="M9366 11453c104,-3 597,5 701,2 -5,-3 -31,-21 -56,-23 -131,-13 -492,-14 -588,3 -13,2 -56,15 -57,18z"/>
   <path class="fil3" d="M10027 11449c-104,0 -208,0 -312,0 60,-4 299,-25 312,0z"/>
   <path class="fil3" d="M9404 11454c104,-8 208,-15 311,-23 -60,1 -299,-3 -311,23z"/>
   <rect class="fil83 str18" x="8793" y="11166" width="172.024" height="46.846" rx="12" ry="17"/>
   <line class="fil6 str20" x1="8909" y1="11172" x2="8849" y2= "11206" />
   <line class="fil6 str26" x1="8847" y1="11179" x2="8817" y2= "11197" />
   <line class="fil6 str21" x1="8947" y1="11174" x2="8897" y2= "11203" />
   <rect class="fil6 str22" x="8599" y="11201" width="560.618" height="89.8456" rx="29" ry="27"/>
   <path class="fil84 str27" d="M9028 11280c-96,5 -194,-3 -290,2 -2,84 -1,158 3,242 5,66 7,117 5,183 90,0 186,5 276,5 3,-13 -1,-33 2,-46 7,-1 14,-1 21,-2 -2,-27 -4,-54 -6,-81 -1,-55 -2,-110 -3,-165 -1,-53 -2,-85 -8,-138z"/>
   <path class="fil6 str28" d="M8770 11357c0,32 -4,74 -4,106 2,61 9,112 9,173 36,3 72,6 108,8 36,0 72,0 109,0 9,0 19,-1 29,-1 -1,-68 -8,-82 -9,-149 0,-40 0,-163 0,-203"/>
   <line class="fil6 str28" x1="8775" y1="11663" x2="8996" y2= "11669" />
   <line class="fil6 str28" x1="8778" y1="11682" x2="8982" y2= "11687" />
   <rect class="fil85 str29" x="9252" y="10444" width="915" height="633" rx="37" ry="37"/>
   <line class="fil6 str21" x1="7331" y1="11278" x2="8429" y2= "11156" />
   <line class="fil6 str21" x1="7331" y1="10787" x2="8429" y2= "10742" />
   <polygon class="fil2 str0" points="7673,10773 7673,10247 7331,10247 7331,10787 "/>
   <polygon class="fil2 str0" points="7993,10760 7993,10247 7673,10247 7673,10773 "/>
   <polygon class="fil2 str0" points="8429,10742 8429,10247 7993,10247 7993,10760 "/>
   <polygon class="fil2 str0" points="7673,11240 7673,10773 7331,10787 7331,11278 "/>
   <polygon class="fil2 str0" points="7993,11204 7993,10760 7673,10773 7673,11240 "/>
   <polygon class="fil2 str0" points="8429,11156 8429,10742 7993,10760 7993,11204 "/>
   <polygon class="fil2 str0" points="7673,11723 7673,11240 7331,11278 7331,11833 "/>
   <polygon class="fil2 str0" points="7993,11621 7993,11204 7673,11240 7673,11723 "/>
   <path class="fil2 str0" d="M8429 11481l0 -325 -436 48 0 417 43 -14c45,-50 109,-66 165,-53l228 -73z"/>
   <path class="fil2 str0" d="M8023 11822l0 0zm264 -22c0,-72 11,-149 -55,-193 -36,-25 -84,-28 -124,-10 -37,17 -69,53 -84,108l-1 117 0 160c63,-33 118,-62 155,-81 73,-39 84,-45 94,-48 9,-4 17,-4 28,-4 11,0 26,0 129,0l0 -368 -228 73c62,15 115,66 121,150l1 96c0,23 -36,24 -36,0z"/>
   <path class="fil2 str0" d="M7987 11822l0 0zm0 178l0 -178 1 -124c2,-6 3,-11 5,-17l0 -60 -312 100 2 437c48,-24 98,-50 147,-76 54,-28 108,-56 157,-82z"/>
   <polygon class="fil2 str21" points="7673,11723 7697,12151 7331,12368 7331,11833 "/>
  </g>
  <rect class="fil0" x="10619" y="9000" width="332" height="272"/>
  <rect class="fil0" x="11239" y="9000" width="332" height="272"/>
  <rect class="fil0" x="10619" y="9499" width="332" height="272"/>
  <rect class="fil0" x="11239" y="9499" width="332" height="272"/>
 </g>
</svg>
